<svg xmlns="http://www.w3.org/2000/svg" xmlns:xlink="http://www.w3.org/1999/xlink" width="500" zoomAndPan="magnify" viewBox="0 0 375 374.999991" height="500" preserveAspectRatio="xMidYMid meet" version="1.0"><defs><clipPath id="e77816a8dd"><path d="M 31.941406 31.941406 L 343.191406 31.941406 L 343.191406 343.191406 L 31.941406 343.191406 Z M 31.941406 31.941406 " clip-rule="nonzero"/></clipPath><clipPath id="d20e9147e5"><path d="M 236 257 L 372 257 L 372 370 L 236 370 Z M 236 257 " clip-rule="nonzero"/></clipPath><clipPath id="563f766414"><path d="M 210.273438 267.230469 L 320.882812 210.078125 L 389.738281 343.339844 L 279.128906 400.492188 Z M 210.273438 267.230469 " clip-rule="nonzero"/></clipPath><clipPath id="2ec3385825"><path d="M 210.273438 267.230469 L 320.882812 210.078125 L 389.738281 343.339844 L 279.128906 400.492188 Z M 210.273438 267.230469 " clip-rule="nonzero"/></clipPath><clipPath id="58e2f019da"><path d="M 222 254 L 373 254 L 373 371 L 222 371 Z M 222 254 " clip-rule="nonzero"/></clipPath><clipPath id="b1b5cea8cb"><path d="M 210.273438 267.230469 L 320.882812 210.078125 L 389.738281 343.339844 L 279.128906 400.492188 Z M 210.273438 267.230469 " clip-rule="nonzero"/></clipPath><clipPath id="676b5cbbde"><path d="M 210.273438 267.230469 L 320.882812 210.078125 L 389.738281 343.339844 L 279.128906 400.492188 Z M 210.273438 267.230469 " clip-rule="nonzero"/></clipPath></defs><g clip-path="url(#e77816a8dd)"><path fill="#1c3049" d="M 343.191406 187.566406 C 343.191406 273.515625 273.515625 343.191406 187.566406 343.191406 C 101.617188 343.191406 31.941406 273.515625 31.941406 187.566406 C 31.941406 101.621094 101.617188 31.945312 187.566406 31.945312 C 273.515625 31.945312 343.191406 101.621094 343.191406 187.566406 " fill-opacity="1" fill-rule="nonzero"/></g><path fill="#dfaa61" d="M 242.070312 267.550781 L 200.707031 267.550781 C 196.894531 267.550781 193.800781 264.457031 193.800781 260.644531 L 193.800781 227.515625 L 180.800781 227.515625 L 180.800781 260.644531 C 180.800781 264.457031 177.710938 267.550781 173.898438 267.550781 L 132.53125 267.550781 C 128.71875 267.550781 125.628906 264.457031 125.628906 260.644531 L 125.628906 198.78125 C 125.628906 194.96875 128.71875 191.878906 132.53125 191.878906 C 136.34375 191.878906 139.433594 194.96875 139.433594 198.78125 L 139.433594 253.742188 L 166.992188 253.742188 L 166.992188 220.609375 C 166.992188 216.796875 170.085938 213.710938 173.898438 213.710938 L 200.707031 213.710938 C 204.519531 213.710938 207.609375 216.796875 207.609375 220.609375 L 207.609375 253.742188 L 235.167969 253.742188 L 235.167969 198.78125 C 235.167969 194.96875 238.257812 191.878906 242.070312 191.878906 C 245.882812 191.878906 248.972656 194.96875 248.972656 198.78125 L 248.972656 260.644531 C 248.972656 264.457031 245.882812 267.550781 242.070312 267.550781 " fill-opacity="1" fill-rule="nonzero"/><path fill="#dfaa61" d="M 267.8125 201.640625 C 266.046875 201.640625 264.28125 200.964844 262.933594 199.617188 L 187.566406 124.25 L 112.203125 199.617188 C 109.503906 202.3125 105.132812 202.3125 102.4375 199.617188 C 99.742188 196.921875 99.742188 192.550781 102.4375 189.855469 L 182.6875 109.605469 C 185.382812 106.910156 189.753906 106.910156 192.449219 109.605469 L 272.695312 189.855469 C 275.390625 192.550781 275.390625 196.921875 272.695312 199.617188 C 271.347656 200.964844 269.578125 201.640625 267.8125 201.640625 " fill-opacity="1" fill-rule="nonzero"/><path fill="#dfaa61" d="M 235.347656 169.175781 C 231.539062 169.175781 228.445312 166.082031 228.445312 162.273438 L 228.445312 134.832031 C 228.445312 131.019531 231.539062 127.929688 235.347656 127.929688 C 239.160156 127.929688 242.253906 131.019531 242.253906 134.832031 L 242.253906 162.273438 C 242.253906 166.082031 239.160156 169.175781 235.347656 169.175781 " fill-opacity="1" fill-rule="nonzero"/><g clip-path="url(#d20e9147e5)"><g clip-path="url(#563f766414)"><g clip-path="url(#2ec3385825)"><path fill="#dfaa61" d="M 343.269531 278.40625 C 372.332031 309.847656 374.417969 332.769531 368.449219 338.269531 L 337.816406 366.496094 C 332.835938 371.085938 325.886719 369.460938 318.078125 367.089844 L 266.710938 351.179688 C 261.152344 349.460938 258.054688 343.5625 259.792969 338.011719 L 260.019531 337.285156 C 261.757812 331.734375 267.671875 328.628906 273.230469 330.351562 L 284.351562 333.792969 C 284.472656 333.832031 284.5625 333.683594 284.476562 333.59375 L 276.433594 324.890625 L 238.964844 284.355469 C 235.1875 280.269531 235.453125 273.894531 239.554688 270.113281 C 243.65625 266.332031 250.042969 266.582031 253.820312 270.667969 L 290.902344 310.785156 C 291.113281 311.015625 291.476562 311.027344 291.707031 310.816406 C 291.941406 310.601562 291.957031 310.238281 291.742188 310.007812 L 277.511719 294.613281 C 273.734375 290.527344 274 284.152344 278.101562 280.371094 C 282.203125 276.59375 288.589844 276.839844 292.367188 280.925781 L 306.621094 296.347656 C 306.820312 296.5625 307.160156 296.574219 307.378906 296.375 C 307.59375 296.175781 307.609375 295.835938 307.410156 295.621094 L 295.976562 283.25 C 292.199219 279.164062 292.460938 272.789062 296.566406 269.007812 C 300.667969 265.230469 307.054688 265.476562 310.828125 269.5625 L 322.261719 281.933594 C 322.464844 282.148438 322.800781 282.164062 323.019531 281.960938 C 323.238281 281.761719 323.25 281.425781 323.050781 281.207031 L 314.269531 271.707031 C 311.144531 268.328125 311.304688 263.105469 314.625 260.042969 L 314.914062 259.78125 C 318.234375 256.71875 323.460938 256.976562 326.582031 260.355469 L 343.269531 278.40625 " fill-opacity="1" fill-rule="nonzero"/></g></g></g><g clip-path="url(#58e2f019da)"><g clip-path="url(#b1b5cea8cb)"><g clip-path="url(#676b5cbbde)"><path fill="#333333" d="M 265.8125 332.269531 C 267.992188 331.125 270.484375 330.894531 272.832031 331.621094 L 283.953125 335.066406 C 284.582031 335.261719 285.265625 335.003906 285.617188 334.453125 C 285.96875 333.894531 285.90625 333.171875 285.460938 332.6875 L 239.945312 283.449219 C 236.675781 279.910156 236.902344 274.367188 240.457031 271.089844 C 244.011719 267.816406 249.566406 268.03125 252.839844 271.570312 L 289.917969 311.6875 C 290.632812 312.457031 291.839844 312.503906 292.613281 311.792969 C 293.386719 311.078125 293.433594 309.875 292.722656 309.105469 L 278.496094 293.710938 C 275.222656 290.167969 275.453125 284.625 279.003906 281.351562 C 282.558594 278.074219 288.113281 278.289062 291.386719 281.828125 L 305.640625 297.25 C 306.339844 298.007812 307.523438 298.050781 308.28125 297.351562 C 309.039062 296.65625 309.089844 295.472656 308.390625 294.714844 L 296.957031 282.347656 C 293.683594 278.808594 293.914062 273.261719 297.46875 269.988281 C 301.023438 266.710938 306.574219 266.925781 309.847656 270.46875 L 321.28125 282.835938 C 321.980469 283.59375 323.164062 283.636719 323.921875 282.941406 C 324.679688 282.242188 324.730469 281.058594 324.03125 280.300781 L 315.25 270.800781 C 312.628906 267.964844 312.753906 263.578125 315.53125 261.023438 L 315.816406 260.757812 C 318.59375 258.199219 322.980469 258.425781 325.601562 261.261719 L 342.289062 279.3125 C 358.386719 296.726562 365.007812 310.226562 367.726562 318.484375 C 371.203125 329.039062 369.804688 335.210938 367.546875 337.289062 L 336.914062 365.519531 C 332.464844 369.621094 325.929688 368.078125 318.476562 365.820312 L 267.109375 349.910156 C 264.761719 349.183594 262.839844 347.585938 261.699219 345.414062 C 260.554688 343.238281 260.332031 340.75 261.066406 338.40625 L 261.292969 337.679688 C 261.78125 336.117188 262.65625 334.742188 263.832031 333.660156 C 264.421875 333.121094 265.085938 332.652344 265.8125 332.269531 Z M 370.261719 317.648438 C 367.460938 309.140625 360.671875 295.269531 344.25 277.503906 L 327.566406 259.453125 C 323.949219 255.539062 317.867188 255.246094 314.011719 258.800781 L 313.722656 259.066406 C 311.261719 261.335938 310.289062 264.628906 310.851562 267.734375 C 306.519531 264.023438 299.964844 264.066406 295.660156 268.03125 C 292.535156 270.910156 291.382812 275.132812 292.265625 278.992188 C 287.933594 275.386719 281.460938 275.464844 277.199219 279.394531 C 274.085938 282.261719 272.929688 286.460938 273.792969 290.308594 L 254.800781 269.761719 C 250.53125 265.144531 243.289062 264.863281 238.652344 269.136719 C 234.015625 273.410156 233.714844 280.640625 237.984375 285.257812 L 280.433594 331.1875 L 273.628906 329.078125 C 270.601562 328.140625 267.386719 328.4375 264.574219 329.910156 C 261.761719 331.386719 259.695312 333.867188 258.746094 336.890625 L 258.519531 337.617188 C 257.574219 340.640625 257.863281 343.851562 259.332031 346.652344 C 260.804688 349.457031 263.285156 351.515625 266.3125 352.453125 L 317.6875 368.367188 C 325.945312 370.871094 333.230469 372.535156 338.71875 367.472656 L 369.355469 339.246094 C 373.152344 335.746094 373.5 327.472656 370.261719 317.648438 Z M 244.09375 294.972656 C 240.898438 294.296875 237.878906 292.667969 235.503906 290.097656 C 229.382812 283.472656 229.8125 273.101562 236.460938 266.972656 C 243.109375 260.847656 253.5 261.25 259.621094 267.871094 C 261.949219 270.390625 263.328125 273.453125 263.777344 276.613281 L 265.941406 278.953125 C 265.945312 274.5 264.34375 270.039062 261.089844 266.519531 C 254.222656 259.089844 242.566406 258.636719 235.109375 265.511719 C 227.648438 272.382812 227.167969 284.019531 234.035156 291.449219 C 237.328125 295.011719 241.722656 296.96875 246.230469 297.285156 Z M 229.261719 295.847656 C 219.96875 285.796875 220.621094 270.054688 230.714844 260.757812 C 240.804688 251.457031 256.574219 252.070312 265.863281 262.121094 C 271.78125 268.523438 273.664062 277.238281 271.644531 285.125 L 269.855469 283.191406 C 271.15625 276.375 269.324219 269.058594 264.269531 263.589844 C 255.789062 254.414062 241.394531 253.855469 232.179688 262.34375 C 222.96875 270.832031 222.375 285.203125 230.855469 294.378906 C 235.945312 299.886719 243.167969 302.289062 250.117188 301.492188 L 251.898438 303.417969 C 243.824219 304.851562 235.214844 302.289062 229.261719 295.847656 " fill-opacity="1" fill-rule="nonzero"/></g></g></g></svg>