<svg xmlns="http://www.w3.org/2000/svg" xmlns:xlink="http://www.w3.org/1999/xlink" width="500" zoomAndPan="magnify" viewBox="0 0 375 374.999991" height="500" preserveAspectRatio="xMidYMid meet" version="1.0"><defs><clipPath id="ebc0ab9bc5"><path d="M 12.632812 7.207031 L 362.734375 7.207031 L 362.734375 367 L 12.632812 367 Z M 12.632812 7.207031 " clip-rule="nonzero"/></clipPath><clipPath id="3ac1cd775c"><path d="M 187.5 7.207031 C 90.921875 7.207031 12.632812 87.925781 12.632812 187.5 C 12.632812 287.074219 90.921875 367.792969 187.5 367.792969 C 284.078125 367.792969 362.367188 287.074219 362.367188 187.5 C 362.367188 87.925781 284.078125 7.207031 187.5 7.207031 " clip-rule="nonzero"/></clipPath><clipPath id="15ccda8547"><path d="M 62.566406 109.417969 L 274 109.417969 L 274 265.417969 L 62.566406 265.417969 Z M 62.566406 109.417969 " clip-rule="nonzero"/></clipPath><clipPath id="f59a7be1f7"><path d="M 230 148 L 312.316406 148 L 312.316406 230 L 230 230 Z M 230 148 " clip-rule="nonzero"/></clipPath><clipPath id="f6013f28f2"><path d="M 24.632812 19.207031 L 374.734375 19.207031 L 374.734375 375 L 24.632812 375 Z M 24.632812 19.207031 " clip-rule="nonzero"/></clipPath><clipPath id="b0e490c48b"><path d="M 199.5 19.207031 C 102.921875 19.207031 24.632812 99.925781 24.632812 199.5 C 24.632812 299.074219 102.921875 379.792969 199.5 379.792969 C 296.078125 379.792969 374.367188 299.074219 374.367188 199.5 C 374.367188 99.925781 296.078125 19.207031 199.5 19.207031 " clip-rule="nonzero"/></clipPath><clipPath id="ad82a92174"><path d="M 100 112 L 274.746094 112 L 274.746094 310.847656 L 100 310.847656 Z M 100 112 " clip-rule="nonzero"/></clipPath><clipPath id="3635cb788a"><path d="M 141 64.097656 L 168 64.097656 L 168 98 L 141 98 Z M 141 64.097656 " clip-rule="nonzero"/></clipPath><clipPath id="105995d0e5"><path d="M 172 64.097656 L 200 64.097656 L 200 98 L 172 98 Z M 172 64.097656 " clip-rule="nonzero"/></clipPath><clipPath id="268de03b9b"><path d="M 204 64.097656 L 232 64.097656 L 232 98 L 204 98 Z M 204 64.097656 " clip-rule="nonzero"/></clipPath></defs><rect x="-37.5" width="450" fill="#ffffff" y="-37.499999" height="449.999989" fill-opacity="1"/><rect x="-37.5" width="450" fill="#ffffff" y="-37.499999" height="449.999989" fill-opacity="1"/><rect x="-37.5" width="450" fill="#ffffff" y="-37.499999" height="449.999989" fill-opacity="1"/><g clip-path="url(#ebc0ab9bc5)"><g clip-path="url(#3ac1cd775c)"><path fill="#20c997" d="M 12.632812 7.207031 L 362.734375 7.207031 L 362.734375 366.898438 L 12.632812 366.898438 Z M 12.632812 7.207031 " fill-opacity="1" fill-rule="nonzero"/></g></g><path fill="#ffffff" d="M 152.320312 226.414062 C 150.175781 226.414062 148.417969 228.171875 148.417969 230.316406 C 148.417969 232.460938 150.175781 234.214844 152.320312 234.214844 L 183.539062 234.214844 C 185.6875 234.214844 187.441406 232.460938 187.441406 230.316406 C 187.441406 228.171875 185.6875 226.414062 183.539062 226.414062 Z M 152.320312 226.414062 " fill-opacity="1" fill-rule="nonzero"/><path fill="#ffffff" d="M 97.882812 229.144531 C 97.882812 229.585938 97.796875 230.007812 97.628906 230.414062 C 97.460938 230.820312 97.222656 231.179688 96.910156 231.488281 C 96.601562 231.800781 96.242188 232.039062 95.835938 232.207031 C 95.429688 232.375 95.003906 232.460938 94.566406 232.460938 C 94.125 232.460938 93.703125 232.375 93.296875 232.207031 C 92.890625 232.039062 92.53125 231.800781 92.21875 231.488281 C 91.910156 231.179688 91.667969 230.820312 91.5 230.414062 C 91.332031 230.007812 91.25 229.585938 91.25 229.144531 C 91.25 228.707031 91.332031 228.28125 91.5 227.875 C 91.667969 227.472656 91.910156 227.113281 92.21875 226.800781 C 92.53125 226.492188 92.890625 226.25 93.296875 226.082031 C 93.703125 225.914062 94.125 225.832031 94.566406 225.832031 C 95.003906 225.832031 95.429688 225.914062 95.835938 226.082031 C 96.242188 226.25 96.601562 226.492188 96.910156 226.800781 C 97.222656 227.113281 97.460938 227.472656 97.628906 227.875 C 97.796875 228.28125 97.882812 228.707031 97.882812 229.144531 Z M 97.882812 229.144531 " fill-opacity="1" fill-rule="nonzero"/><path fill="#ffffff" d="M 84.808594 229.144531 C 84.808594 229.585938 84.726562 230.007812 84.558594 230.414062 C 84.390625 230.820312 84.148438 231.179688 83.839844 231.488281 C 83.527344 231.800781 83.167969 232.039062 82.761719 232.207031 C 82.355469 232.375 81.933594 232.460938 81.492188 232.460938 C 81.054688 232.460938 80.628906 232.375 80.222656 232.207031 C 79.816406 232.039062 79.457031 231.800781 79.148438 231.488281 C 78.835938 231.179688 78.597656 230.820312 78.429688 230.414062 C 78.261719 230.007812 78.175781 229.585938 78.175781 229.144531 C 78.175781 228.707031 78.261719 228.28125 78.429688 227.875 C 78.597656 227.472656 78.835938 227.113281 79.148438 226.800781 C 79.457031 226.492188 79.816406 226.25 80.222656 226.082031 C 80.628906 225.914062 81.054688 225.832031 81.492188 225.832031 C 81.933594 225.832031 82.355469 225.914062 82.761719 226.082031 C 83.167969 226.25 83.527344 226.492188 83.839844 226.800781 C 84.148438 227.113281 84.390625 227.472656 84.558594 227.875 C 84.726562 228.28125 84.808594 228.707031 84.808594 229.144531 Z M 84.808594 229.144531 " fill-opacity="1" fill-rule="nonzero"/><path fill="#ffffff" d="M 149.785156 140.421875 C 148.613281 138.667969 146.078125 138.082031 144.320312 139.253906 L 109.199219 162.652344 C 108.027344 163.433594 107.445312 164.601562 107.445312 165.96875 C 107.445312 167.332031 108.027344 168.503906 109.199219 169.28125 C 109.199219 169.28125 144.320312 192.679688 144.320312 192.679688 C 146.078125 193.851562 148.613281 193.460938 149.785156 191.511719 C 150.953125 189.757812 150.566406 187.222656 148.613281 186.050781 L 118.371094 165.96875 L 148.613281 145.882812 C 150.371094 144.710938 150.953125 142.179688 149.785156 140.421875 Z M 149.785156 140.421875 " fill-opacity="1" fill-rule="nonzero"/><path fill="#ffffff" d="M 186.074219 191.511719 C 187.246094 193.265625 189.78125 193.851562 191.539062 192.679688 L 226.660156 169.28125 C 227.832031 168.503906 228.417969 167.332031 228.417969 165.96875 C 228.417969 164.601562 227.832031 163.433594 226.660156 162.652344 L 191.539062 139.253906 C 189.78125 138.082031 187.246094 138.472656 186.074219 140.421875 C 184.90625 142.179688 185.296875 144.710938 187.246094 145.882812 L 217.488281 165.96875 L 187.246094 186.050781 C 185.492188 187.222656 184.90625 189.757812 186.074219 191.511719 Z M 186.074219 191.511719 " fill-opacity="1" fill-rule="nonzero"/><path fill="#ffffff" d="M 172.027344 135.742188 L 156.417969 194.242188 C 155.832031 196.386719 157.199219 198.53125 159.148438 198.921875 C 159.539062 198.921875 159.734375 199.117188 160.125 199.117188 C 161.882812 199.117188 163.441406 197.945312 163.832031 196.191406 L 179.441406 137.691406 C 180.027344 135.546875 178.660156 133.402344 176.710938 133.011719 C 174.757812 132.429688 172.613281 133.597656 172.027344 135.742188 Z M 172.027344 135.742188 " fill-opacity="1" fill-rule="nonzero"/><g clip-path="url(#15ccda8547)"><path fill="#ffffff" d="M 152.320312 257.613281 L 140.613281 257.613281 C 138.46875 257.613281 136.710938 259.371094 136.710938 261.515625 C 136.710938 263.660156 138.46875 265.414062 140.613281 265.414062 L 195.246094 265.414062 C 197.394531 265.414062 199.148438 263.660156 199.148438 261.515625 C 199.148438 259.371094 197.394531 257.613281 195.246094 257.613281 L 183.539062 257.613281 L 183.539062 245.914062 L 261.585938 245.914062 C 266.660156 245.914062 270.953125 242.601562 272.511719 238.113281 L 268.414062 238.113281 C 266.660156 238.113281 265.097656 237.921875 263.539062 237.335938 C 262.953125 237.726562 262.171875 238.113281 261.390625 238.113281 L 74.273438 238.113281 C 72.128906 238.113281 70.371094 236.359375 70.371094 234.214844 L 70.371094 222.515625 L 235.441406 222.515625 L 234.855469 221.929688 C 232.902344 219.980469 231.34375 217.445312 230.5625 214.714844 L 70.371094 214.714844 L 70.371094 121.117188 C 70.371094 118.972656 72.128906 117.21875 74.273438 117.21875 L 261.585938 117.21875 C 263.734375 117.21875 265.488281 118.972656 265.488281 121.117188 L 265.488281 141.007812 C 266.464844 140.8125 267.441406 140.617188 268.609375 140.617188 L 273.292969 140.617188 L 273.292969 121.117188 C 273.292969 114.683594 268.023438 109.417969 261.585938 109.417969 L 74.273438 109.417969 C 67.835938 109.417969 62.566406 114.683594 62.566406 121.117188 L 62.566406 234.214844 C 62.566406 240.648438 67.835938 245.914062 74.273438 245.914062 L 152.320312 245.914062 Z M 160.125 245.914062 L 175.734375 245.914062 L 175.734375 257.613281 L 160.125 257.613281 Z M 160.125 245.914062 " fill-opacity="1" fill-rule="nonzero"/></g><g clip-path="url(#f59a7be1f7)"><path fill="#ffffff" d="M 304.707031 177.082031 C 304.316406 176.105469 303.925781 175.328125 303.535156 174.351562 C 306.074219 170.648438 305.683594 165.578125 302.367188 162.261719 L 298.464844 158.363281 C 296.707031 156.609375 294.171875 155.632812 291.632812 155.632812 C 289.683594 155.632812 287.925781 156.21875 286.367188 157.191406 C 285.585938 156.800781 284.609375 156.414062 283.632812 156.023438 C 282.660156 151.539062 278.757812 148.417969 274.269531 148.417969 L 268.804688 148.417969 C 264.121094 148.417969 260.21875 151.734375 259.441406 156.023438 C 258.464844 156.414062 257.683594 156.800781 256.707031 157.191406 C 255.148438 156.21875 253.390625 155.632812 251.441406 155.632812 C 248.902344 155.632812 246.367188 156.609375 244.609375 158.363281 L 240.707031 162.261719 C 237.390625 165.578125 237 170.648438 239.539062 174.351562 C 239.148438 175.132812 238.757812 176.105469 238.367188 177.082031 C 233.878906 178.058594 230.757812 181.957031 230.757812 186.441406 L 230.757812 191.902344 C 230.757812 196.582031 234.074219 200.480469 238.367188 201.261719 C 238.757812 202.234375 239.148438 203.015625 239.539062 203.992188 C 238.5625 205.550781 237.976562 207.304688 237.976562 209.257812 C 237.976562 211.789062 238.953125 214.324219 240.707031 216.082031 L 244.609375 219.980469 C 246.367188 221.734375 248.902344 222.710938 251.441406 222.710938 C 253.390625 222.710938 255.148438 222.125 256.707031 221.152344 C 257.488281 221.539062 258.464844 221.929688 259.441406 222.320312 C 260.414062 226.804688 264.316406 229.925781 268.804688 229.925781 L 274.269531 229.925781 C 278.953125 229.925781 282.855469 226.609375 283.632812 222.320312 C 284.609375 221.929688 285.390625 221.539062 286.367188 221.152344 C 287.925781 222.125 289.683594 222.710938 291.632812 222.710938 C 294.171875 222.710938 296.707031 221.734375 298.464844 219.980469 L 302.367188 216.082031 C 304.121094 214.324219 305.097656 211.789062 305.097656 209.257812 C 305.097656 207.304688 304.511719 205.550781 303.535156 203.992188 C 303.925781 203.210938 304.316406 202.234375 304.707031 201.261719 C 309.195312 200.285156 312.316406 196.386719 312.316406 191.902344 L 312.316406 186.441406 C 312.316406 181.957031 309 178.058594 304.707031 177.082031 Z M 304.511719 192.097656 C 304.511719 193.070312 303.730469 193.851562 302.757812 193.851562 L 298.660156 193.851562 C 297.878906 198.140625 296.316406 201.847656 293.976562 205.160156 L 296.902344 208.085938 C 297.683594 208.867188 297.683594 210.035156 296.902344 210.621094 L 293 214.519531 C 292.609375 214.910156 292.21875 215.105469 291.632812 215.105469 C 291.050781 215.105469 290.660156 214.910156 290.269531 214.519531 L 287.339844 211.597656 C 284.023438 213.9375 280.121094 215.691406 276.023438 216.277344 L 276.023438 220.371094 C 276.023438 221.34375 275.246094 222.125 274.269531 222.125 L 268.804688 222.125 C 267.828125 222.125 267.050781 221.34375 267.050781 220.371094 L 267.050781 216.664062 C 262.757812 215.886719 259.050781 214.324219 255.734375 211.984375 L 252.414062 214.714844 C 252.027344 215.105469 251.636719 215.300781 251.050781 215.300781 C 250.464844 215.300781 250.269531 215.105469 249.878906 214.714844 L 245.976562 210.816406 C 245.195312 210.035156 245.195312 208.867188 245.976562 208.28125 L 248.902344 205.355469 C 246.5625 202.042969 244.804688 198.140625 244.222656 194.046875 L 240.125 194.046875 C 239.148438 194.046875 238.367188 193.265625 238.367188 192.292969 L 238.367188 186.832031 C 238.367188 185.855469 239.148438 185.078125 240.125 185.078125 L 244.027344 185.078125 C 244.804688 180.785156 246.367188 177.082031 248.707031 173.765625 L 245.976562 170.453125 C 245.195312 169.671875 245.195312 168.503906 245.976562 167.917969 L 249.878906 164.015625 C 250.269531 163.628906 250.660156 163.433594 251.246094 163.433594 C 251.832031 163.433594 252.21875 163.628906 252.609375 164.015625 L 255.539062 166.941406 C 258.855469 164.601562 262.757812 162.847656 266.855469 162.261719 L 266.855469 158.167969 C 266.855469 157.191406 267.636719 156.414062 268.609375 156.414062 L 274.074219 156.414062 C 275.050781 156.414062 275.828125 157.191406 275.828125 158.167969 L 275.828125 162.066406 C 280.121094 162.847656 283.828125 164.40625 287.148438 166.746094 L 290.074219 163.824219 C 290.464844 163.433594 290.855469 163.238281 291.4375 163.238281 C 292.023438 163.238281 292.414062 163.433594 292.804688 163.824219 L 296.707031 167.722656 C 297.488281 168.503906 297.488281 169.671875 296.707031 170.257812 L 293.78125 173.183594 C 296.121094 176.496094 297.878906 180.398438 298.464844 184.492188 L 302.5625 184.492188 C 303.535156 184.492188 304.316406 185.273438 304.316406 186.246094 L 304.316406 192.097656 Z M 304.511719 192.097656 " fill-opacity="1" fill-rule="nonzero"/></g><path fill="#ffffff" d="M 271.34375 173.765625 C 262.757812 173.765625 255.734375 180.785156 255.734375 189.367188 C 255.734375 197.945312 262.757812 204.964844 271.34375 204.964844 C 279.925781 204.964844 286.953125 197.945312 286.953125 189.367188 C 286.953125 180.785156 279.925781 173.765625 271.34375 173.765625 Z M 271.34375 197.167969 C 267.050781 197.167969 263.539062 193.65625 263.539062 189.367188 C 263.539062 185.078125 267.050781 181.566406 271.34375 181.566406 C 275.632812 181.566406 279.148438 185.078125 279.148438 189.367188 C 279.148438 193.65625 275.632812 197.167969 271.34375 197.167969 Z M 271.34375 197.167969 " fill-opacity="1" fill-rule="nonzero"/><g clip-path="url(#f6013f28f2)"><g clip-path="url(#b0e490c48b)"><path fill="#20c997" d="M 24.632812 19.207031 L 374.734375 19.207031 L 374.734375 378.898438 L 24.632812 378.898438 Z M 24.632812 19.207031 " fill-opacity="1" fill-rule="nonzero"/></g></g><g clip-path="url(#ad82a92174)"><path fill="#20c997" d="M 187.296875 310.839844 L 115.996094 291.023438 L 100.109375 112.589844 L 274.695312 112.589844 L 258.796875 290.992188 L 187.300781 310.835938 Z M 187.296875 310.839844 " fill-opacity="1" fill-rule="nonzero"/></g><path fill="#20c997" d="M 245.183594 279.636719 L 258.773438 127.179688 L 187.40625 127.175781 L 187.40625 295.667969 L 245.183594 279.632812 Z M 245.183594 279.636719 " fill-opacity="1" fill-rule="nonzero"/><path fill="#ebebeb" d="M 136.535156 193.359375 L 138.492188 215.238281 L 187.40625 215.238281 L 187.40625 193.359375 Z M 136.535156 193.359375 " fill-opacity="1" fill-rule="nonzero"/><path fill="#ebebeb" d="M 132.597656 149.058594 L 134.585938 170.945312 L 187.40625 170.945312 L 187.40625 149.058594 Z M 132.597656 149.058594 " fill-opacity="1" fill-rule="nonzero"/><path fill="#ebebeb" d="M 187.40625 250.191406 L 187.308594 250.21875 L 162.96875 243.632812 L 161.410156 226.179688 L 139.46875 226.179688 L 142.53125 260.542969 L 187.304688 272.988281 L 187.40625 272.960938 Z M 187.40625 250.191406 " fill-opacity="1" fill-rule="nonzero"/><g clip-path="url(#3635cb788a)"><path fill="#ebebeb" d="M 141.199219 64.097656 L 167.671875 64.097656 L 167.671875 75.179688 L 152.269531 75.179688 L 152.269531 86.265625 L 167.671875 86.265625 L 167.671875 97.347656 L 141.199219 97.347656 Z M 141.199219 64.097656 " fill-opacity="1" fill-rule="nonzero"/></g><g clip-path="url(#105995d0e5)"><path fill="#ebebeb" d="M 172.964844 64.097656 L 199.4375 64.097656 L 199.4375 73.734375 L 184.039062 73.734375 L 184.039062 75.664062 L 199.4375 75.664062 L 199.4375 97.832031 L 172.964844 97.832031 L 172.964844 87.710938 L 188.371094 87.710938 L 188.371094 85.785156 L 172.964844 85.785156 Z M 172.964844 64.097656 " fill-opacity="1" fill-rule="nonzero"/></g><g clip-path="url(#268de03b9b)"><path fill="#ebebeb" d="M 204.734375 64.097656 L 231.207031 64.097656 L 231.207031 73.734375 L 215.800781 73.734375 L 215.800781 75.664062 L 231.207031 75.664062 L 231.207031 97.832031 L 204.734375 97.832031 L 204.734375 87.710938 L 220.132812 87.710938 L 220.132812 85.785156 L 204.734375 85.785156 Z M 204.734375 64.097656 " fill-opacity="1" fill-rule="nonzero"/></g><path fill="#ffffff" d="M 238.140625 193.359375 L 242.082031 149.058594 L 187.332031 149.058594 L 187.332031 170.945312 L 218.128906 170.945312 L 216.144531 193.359375 L 187.332031 193.359375 L 187.332031 215.238281 L 214.246094 215.238281 L 211.707031 243.621094 L 187.332031 250.210938 L 187.332031 272.976562 L 232.136719 260.542969 L 232.464844 256.84375 L 237.605469 199.230469 Z M 238.140625 193.359375 " fill-opacity="1" fill-rule="nonzero"/></svg>