<svg xmlns="http://www.w3.org/2000/svg" xmlns:xlink="http://www.w3.org/1999/xlink" width="500" zoomAndPan="magnify" viewBox="0 0 375 374.999991" height="500" preserveAspectRatio="xMidYMid meet" version="1.0"><defs><clipPath id="5c8deb89ad"><path d="M 12.726562 12.726562 L 362.226562 12.726562 L 362.226562 362.226562 L 12.726562 362.226562 Z M 12.726562 12.726562 " clip-rule="nonzero"/></clipPath></defs><g clip-path="url(#5c8deb89ad)"><path fill="#20c997" d="M 187.476562 12.726562 C 283.988281 12.726562 362.226562 90.960938 362.226562 187.476562 C 362.226562 283.988281 283.988281 362.226562 187.476562 362.226562 C 90.960938 362.226562 12.726562 283.988281 12.726562 187.476562 C 12.726562 90.960938 90.960938 12.726562 187.476562 12.726562 " fill-opacity="1" fill-rule="evenodd"/></g><path fill="#ffffff" d="M 111.703125 82.625 L 218.839844 82.625 C 219.777344 82.625 220.621094 83.007812 221.226562 83.621094 L 272.609375 135.003906 C 273.265625 135.65625 273.589844 136.515625 273.589844 137.375 L 273.589844 281.980469 C 273.589844 284.828125 272.429688 287.414062 270.554688 289.289062 C 268.679688 291.164062 266.09375 292.324219 263.246094 292.324219 L 111.703125 292.324219 C 108.855469 292.324219 106.269531 291.164062 104.394531 289.289062 C 102.519531 287.414062 101.359375 284.828125 101.359375 281.980469 L 101.359375 92.96875 C 101.359375 90.121094 102.519531 87.535156 104.394531 85.660156 C 106.269531 83.789062 108.855469 82.625 111.703125 82.625 Z M 217.453125 89.335938 L 111.703125 89.335938 C 110.707031 89.335938 109.800781 89.746094 109.140625 90.40625 C 108.476562 91.066406 108.066406 91.972656 108.066406 92.972656 L 108.066406 281.980469 C 108.066406 282.976562 108.476562 283.882812 109.140625 284.546875 C 109.800781 285.207031 110.707031 285.613281 111.703125 285.613281 L 263.246094 285.613281 C 264.242188 285.613281 265.148438 285.207031 265.808594 284.546875 C 266.472656 283.882812 266.882812 282.976562 266.882812 281.980469 L 266.882812 138.761719 L 217.453125 89.335938 " fill-opacity="1" fill-rule="nonzero"/><path fill="#ffffff" d="M 252.105469 292.324219 L 122.773438 292.324219 C 121.152344 292.324219 119.804688 291.179688 119.488281 289.65625 C 119.375 289.25 119.289062 288.847656 119.230469 288.449219 C 119.152344 287.9375 119.113281 287.429688 119.113281 286.929688 L 119.113281 248.90625 C 119.113281 246.058594 120.277344 243.46875 122.148438 241.59375 C 124.019531 239.722656 126.609375 238.558594 129.457031 238.558594 L 245.492188 238.558594 C 248.339844 238.558594 250.925781 239.722656 252.800781 241.59375 C 254.675781 243.46875 255.835938 246.058594 255.835938 248.90625 L 255.835938 286.929688 C 255.835938 287.429688 255.796875 287.9375 255.71875 288.449219 C 255.648438 288.941406 255.53125 289.445312 255.375 289.953125 L 255.382812 289.957031 C 254.933594 291.421875 253.566406 292.355469 252.105469 292.324219 Z M 125.824219 285.613281 L 249.125 285.613281 L 249.125 248.90625 C 249.125 247.910156 248.71875 247 248.058594 246.339844 C 247.394531 245.683594 246.488281 245.269531 245.492188 245.269531 L 129.457031 245.269531 C 128.460938 245.269531 127.550781 245.683594 126.894531 246.339844 C 126.234375 247 125.824219 247.910156 125.824219 248.90625 L 125.824219 285.613281 " fill-opacity="1" fill-rule="nonzero"/><path fill="#ffffff" d="M 169.222656 269.089844 L 174.628906 270.800781 C 173.796875 273.820312 172.421875 276.058594 170.492188 277.527344 C 168.566406 278.984375 166.117188 279.71875 163.148438 279.71875 C 159.484375 279.71875 156.464844 278.464844 154.105469 275.960938 C 151.742188 273.453125 150.558594 270.023438 150.558594 265.679688 C 150.558594 261.078125 151.75 257.507812 154.125 254.960938 C 156.496094 252.421875 159.617188 251.148438 163.488281 251.148438 C 166.867188 251.148438 169.617188 252.144531 171.726562 254.144531 C 172.988281 255.324219 173.925781 257.019531 174.554688 259.234375 L 169.03125 260.554688 C 168.707031 259.117188 168.027344 257.988281 166.984375 257.15625 C 165.949219 256.324219 164.6875 255.914062 163.207031 255.914062 C 161.164062 255.914062 159.496094 256.648438 158.222656 258.121094 C 156.949219 259.589844 156.3125 261.96875 156.3125 265.261719 C 156.3125 268.753906 156.933594 271.246094 158.195312 272.726562 C 159.453125 274.210938 161.085938 274.953125 163.09375 274.953125 C 164.578125 274.953125 165.851562 274.480469 166.921875 273.535156 C 167.988281 272.597656 168.753906 271.109375 169.222656 269.089844 Z M 178.003906 270.261719 L 183.433594 269.726562 C 183.757812 271.554688 184.417969 272.894531 185.421875 273.75 C 186.417969 274.597656 187.765625 275.027344 189.464844 275.027344 C 191.257812 275.027344 192.613281 274.648438 193.523438 273.882812 C 194.433594 273.121094 194.894531 272.234375 194.894531 271.21875 C 194.894531 270.5625 194.699219 270.011719 194.3125 269.554688 C 193.933594 269.089844 193.265625 268.691406 192.308594 268.355469 C 191.65625 268.125 190.164062 267.726562 187.839844 267.148438 C 184.847656 266.40625 182.753906 265.492188 181.550781 264.414062 C 179.851562 262.894531 179 261.042969 179 258.855469 C 179 257.445312 179.402344 256.132812 180.199219 254.902344 C 180.996094 253.683594 182.148438 252.75 183.648438 252.105469 C 185.152344 251.46875 186.960938 251.148438 189.082031 251.148438 C 192.558594 251.148438 195.164062 251.90625 196.921875 253.425781 C 198.667969 254.949219 199.589844 256.972656 199.679688 259.519531 L 194.101562 259.761719 C 193.863281 258.339844 193.351562 257.316406 192.5625 256.699219 C 191.78125 256.074219 190.601562 255.765625 189.03125 255.765625 C 187.410156 255.765625 186.136719 256.09375 185.222656 256.761719 C 184.628906 257.1875 184.335938 257.757812 184.335938 258.476562 C 184.335938 259.132812 184.613281 259.691406 185.164062 260.152344 C 185.867188 260.746094 187.578125 261.363281 190.292969 262 C 193.007812 262.644531 195.015625 263.308594 196.316406 263.988281 C 197.613281 264.675781 198.632812 265.609375 199.371094 266.800781 C 200.101562 267.988281 200.472656 269.457031 200.472656 271.199219 C 200.472656 272.78125 200.03125 274.269531 199.152344 275.644531 C 198.269531 277.03125 197.027344 278.058594 195.421875 278.726562 C 193.8125 279.402344 191.804688 279.738281 189.40625 279.738281 C 185.910156 279.738281 183.230469 278.933594 181.355469 277.320312 C 179.484375 275.703125 178.363281 273.351562 178.003906 270.261719 Z M 203.75 270.261719 L 209.183594 269.726562 C 209.503906 271.554688 210.164062 272.894531 211.171875 273.75 C 212.167969 274.597656 213.511719 275.027344 215.210938 275.027344 C 217.003906 275.027344 218.359375 274.648438 219.269531 273.882812 C 220.183594 273.121094 220.640625 272.234375 220.640625 271.21875 C 220.640625 270.5625 220.449219 270.011719 220.0625 269.554688 C 219.679688 269.089844 219.011719 268.691406 218.054688 268.355469 C 217.402344 268.125 215.910156 267.726562 213.589844 267.148438 C 210.597656 266.40625 208.5 265.492188 207.296875 264.414062 C 205.597656 262.894531 204.75 261.042969 204.75 258.855469 C 204.75 257.445312 205.148438 256.132812 205.945312 254.902344 C 206.742188 253.683594 207.894531 252.75 209.394531 252.105469 C 210.898438 251.46875 212.707031 251.148438 214.828125 251.148438 C 218.304688 251.148438 220.910156 251.90625 222.667969 253.425781 C 224.414062 254.949219 225.335938 256.972656 225.425781 259.519531 L 219.847656 259.761719 C 219.609375 258.339844 219.097656 257.316406 218.3125 256.699219 C 217.527344 256.074219 216.347656 255.765625 214.78125 255.765625 C 213.15625 255.765625 211.882812 256.09375 210.96875 256.761719 C 210.378906 257.1875 210.082031 257.757812 210.082031 258.476562 C 210.082031 259.132812 210.359375 259.691406 210.910156 260.152344 C 211.613281 260.746094 213.324219 261.363281 216.039062 262 C 218.753906 262.644531 220.761719 263.308594 222.0625 263.988281 C 223.359375 264.675781 224.378906 265.609375 225.117188 266.800781 C 225.851562 267.988281 226.21875 269.457031 226.21875 271.199219 C 226.21875 272.78125 225.78125 274.269531 224.898438 275.644531 C 224.019531 277.03125 222.773438 278.058594 221.167969 278.726562 C 219.558594 279.402344 217.550781 279.738281 215.152344 279.738281 C 211.660156 279.738281 208.976562 278.933594 207.101562 277.320312 C 205.230469 275.703125 204.113281 273.351562 203.75 270.261719 " fill-opacity="1" fill-rule="nonzero"/><path fill="#ffffff" d="M 269.933594 140.714844 L 218.972656 140.566406 L 218.972656 137.226562 L 218.960938 140.578125 C 217.109375 140.574219 215.613281 139.066406 215.617188 137.214844 C 215.617188 137.121094 215.621094 137.03125 215.628906 136.9375 L 215.5 85.988281 L 215.488281 85.988281 C 215.484375 84.136719 216.980469 82.628906 218.835938 82.625 C 219.773438 82.621094 220.621094 83.003906 221.234375 83.625 L 272.609375 135.003906 C 273.917969 136.3125 273.917969 138.4375 272.609375 139.746094 C 271.875 140.480469 270.890625 140.800781 269.933594 140.714844 Z M 222.304688 133.890625 L 262.125 134.007812 L 222.203125 94.089844 Z M 222.304688 133.890625 " fill-opacity="1" fill-rule="nonzero"/></svg>