<svg xmlns="http://www.w3.org/2000/svg" xmlns:xlink="http://www.w3.org/1999/xlink" width="500" zoomAndPan="magnify" viewBox="0 0 375 374.999991" height="500" preserveAspectRatio="xMidYMid meet" version="1.0"><defs><clipPath id="ec8f83f3d7"><path d="M 12.632812 11.644531 L 362.734375 11.644531 L 362.734375 372 L 12.632812 372 Z M 12.632812 11.644531 " clip-rule="nonzero"/></clipPath><clipPath id="a793d47390"><path d="M 187.5 11.644531 C 90.921875 11.644531 12.632812 92.367188 12.632812 191.9375 C 12.632812 291.511719 90.921875 372.234375 187.5 372.234375 C 284.078125 372.234375 362.367188 291.511719 362.367188 191.9375 C 362.367188 92.367188 284.078125 11.644531 187.5 11.644531 " clip-rule="nonzero"/></clipPath><clipPath id="1f7d98a4a4"><path d="M 65.929688 67.140625 L 315.679688 67.140625 L 315.679688 316.890625 L 65.929688 316.890625 Z M 65.929688 67.140625 " clip-rule="nonzero"/></clipPath></defs><g clip-path="url(#ec8f83f3d7)"><g clip-path="url(#a793d47390)"><path fill="#20c997" d="M 12.632812 11.644531 L 362.734375 11.644531 L 362.734375 371.339844 L 12.632812 371.339844 Z M 12.632812 11.644531 " fill-opacity="1" fill-rule="nonzero"/></g></g><path fill="#ffffff" d="M 202.796875 154.5625 L 202.796875 174.867188 L 228.359375 174.867188 L 224.785156 202.640625 L 202.796875 202.640625 L 202.796875 266.285156 L 174.917969 266.285156 L 174.917969 202.640625 L 151.039062 202.640625 L 151.039062 174.867188 L 174.917969 174.867188 L 174.917969 154.5625 C 174.917969 132.574219 192.699219 117.742188 214.683594 117.742188 C 224.363281 117.742188 230.464844 119.214844 230.464844 119.214844 L 230.464844 142.675781 L 214.683594 142.675781 C 208.164062 142.675781 202.796875 148.039062 202.796875 154.5625 Z M 202.796875 154.5625 " fill-opacity="1" fill-rule="nonzero"/><g clip-path="url(#1f7d98a4a4)"><path fill="#ffffff" d="M 190.804688 316.890625 C 122 316.890625 65.929688 260.921875 65.929688 192.015625 C 65.929688 123.105469 122 67.140625 190.804688 67.140625 C 259.710938 67.140625 315.679688 123.210938 315.679688 192.015625 C 315.679688 260.816406 259.710938 316.890625 190.804688 316.890625 Z M 190.804688 73.976562 C 125.683594 73.976562 72.765625 126.894531 72.765625 192.015625 C 72.765625 257.132812 125.683594 310.050781 190.804688 310.050781 C 255.925781 310.050781 308.839844 257.132812 308.839844 192.015625 C 308.839844 126.894531 255.925781 73.976562 190.804688 73.976562 Z M 190.804688 73.976562 " fill-opacity="1" fill-rule="nonzero"/></g></svg>