<svg xmlns="http://www.w3.org/2000/svg" xmlns:xlink="http://www.w3.org/1999/xlink" width="500" zoomAndPan="magnify" viewBox="0 0 375 374.999991" height="500" preserveAspectRatio="xMidYMid meet" version="1.0"><defs><clipPath id="e310f8480b"><path d="M 12.769531 7.347656 L 362.597656 7.347656 L 362.597656 367 L 12.769531 367 Z M 12.769531 7.347656 " clip-rule="nonzero"/></clipPath><clipPath id="78321adf78"><path d="M 187.5 7.347656 C 91 7.347656 12.769531 88.003906 12.769531 187.5 C 12.769531 286.996094 91 367.652344 187.5 367.652344 C 284 367.652344 362.230469 286.996094 362.230469 187.5 C 362.230469 88.003906 284 7.347656 187.5 7.347656 " clip-rule="nonzero"/></clipPath><clipPath id="27fba01134"><path d="M 65.0625 66.214844 L 308.8125 66.214844 L 308.8125 309.964844 L 65.0625 309.964844 Z M 65.0625 66.214844 " clip-rule="nonzero"/></clipPath></defs><g clip-path="url(#e310f8480b)"><g clip-path="url(#78321adf78)"><path fill="#20c997" d="M 12.769531 7.347656 L 362.597656 7.347656 L 362.597656 366.761719 L 12.769531 366.761719 Z M 12.769531 7.347656 " fill-opacity="1" fill-rule="nonzero"/></g></g><g clip-path="url(#27fba01134)"><path fill="#ffffff" d="M 186.9375 66.214844 C 119.625 66.214844 65.0625 120.78125 65.0625 188.089844 C 65.0625 255.402344 119.625 309.964844 186.9375 309.964844 C 254.25 309.964844 308.8125 255.402344 308.8125 188.089844 C 308.8125 120.78125 254.25 66.214844 186.9375 66.214844 Z M 210.214844 259.925781 C 206.488281 260.644531 205.15625 258.351562 205.15625 256.378906 C 205.15625 253.953125 205.253906 246.007812 205.253906 236.132812 C 205.253906 229.25 202.902344 224.75 200.269531 222.472656 C 216.640625 220.644531 233.835938 214.402344 233.835938 186.054688 C 233.835938 178 230.996094 171.40625 226.277344 166.25 C 227.035156 164.386719 229.558594 156.878906 225.546875 146.726562 C 225.546875 146.726562 219.394531 144.738281 205.351562 154.296875 C 199.480469 152.660156 193.191406 151.84375 186.949219 151.808594 C 180.699219 151.84375 174.410156 152.660156 168.546875 154.296875 C 154.507812 144.753906 148.339844 146.726562 148.339844 146.726562 C 144.34375 156.890625 146.867188 164.386719 147.621094 166.25 C 142.917969 171.40625 140.050781 178 140.050781 186.054688 C 140.050781 214.332031 157.210938 220.65625 173.53125 222.519531 C 171.433594 224.359375 169.535156 227.613281 168.863281 232.378906 C 164.671875 234.269531 154.03125 237.523438 147.476562 226.25 C 147.476562 226.25 143.597656 219.167969 136.226562 218.644531 C 136.226562 218.644531 129.046875 218.546875 135.726562 223.128906 C 135.726562 223.128906 140.539062 225.398438 143.878906 233.929688 C 143.878906 233.929688 148.195312 248.285156 168.644531 243.824219 C 168.679688 249.980469 168.742188 254.621094 168.742188 256.378906 C 168.742188 258.328125 167.402344 260.605469 163.71875 259.9375 C 134.507812 250.175781 113.445312 222.519531 113.445312 189.917969 C 113.445312 149.152344 146.351562 116.125 186.949219 116.125 C 227.546875 116.125 260.453125 149.164062 260.453125 189.917969 C 260.453125 222.507812 239.417969 250.148438 210.226562 259.925781 Z M 210.214844 259.925781 " fill-opacity="1" fill-rule="nonzero"/></g></svg>