<svg xmlns="http://www.w3.org/2000/svg" xmlns:xlink="http://www.w3.org/1999/xlink" width="500" zoomAndPan="magnify" viewBox="0 0 375 374.999991" height="500" preserveAspectRatio="xMidYMid meet" version="1.0"><defs><clipPath id="8d5f7fdb2d"><path d="M 12.789062 12.789062 L 362.289062 12.789062 L 362.289062 362.289062 L 12.789062 362.289062 Z M 12.789062 12.789062 " clip-rule="nonzero"/></clipPath></defs><path fill="#20c997" d="M 359.027344 187.542969 C 359.027344 282.253906 282.25 359.03125 187.539062 359.03125 C 92.828125 359.03125 16.050781 282.253906 16.050781 187.542969 C 16.050781 92.832031 92.828125 16.054688 187.539062 16.054688 C 282.25 16.054688 359.027344 92.832031 359.027344 187.542969 Z M 359.027344 187.542969 " fill-opacity="1" fill-rule="nonzero"/><g clip-path="url(#8d5f7fdb2d)"><path fill="#ffffff" d="M 187.539062 362.292969 C 163.949219 362.292969 141.066406 357.671875 119.519531 348.558594 C 98.710938 339.757812 80.023438 327.15625 63.972656 311.109375 C 47.925781 295.0625 35.328125 276.375 26.527344 255.566406 C 17.414062 234.019531 12.792969 211.132812 12.792969 187.542969 C 12.792969 163.953125 17.414062 141.070312 26.527344 119.523438 C 35.328125 98.714844 47.925781 80.027344 63.972656 63.976562 C 80.023438 47.929688 98.710938 35.332031 119.519531 26.53125 C 141.066406 17.417969 163.949219 12.796875 187.539062 12.796875 C 211.128906 12.796875 234.015625 17.417969 255.5625 26.53125 C 276.371094 35.332031 295.058594 47.929688 311.105469 63.976562 C 327.152344 80.027344 339.75 98.714844 348.554688 119.523438 C 357.667969 141.070312 362.289062 163.953125 362.289062 187.542969 C 362.289062 211.132812 357.667969 234.019531 348.554688 255.566406 C 339.75 276.375 327.152344 295.0625 311.105469 311.109375 C 295.058594 327.15625 276.371094 339.753906 255.5625 348.558594 C 234.015625 357.671875 211.128906 362.292969 187.539062 362.292969 Z M 187.539062 19.316406 C 94.777344 19.316406 19.3125 94.78125 19.3125 187.542969 C 19.3125 280.304688 94.777344 355.773438 187.539062 355.773438 C 280.300781 355.773438 355.765625 280.304688 355.765625 187.542969 C 355.765625 94.78125 280.300781 19.316406 187.539062 19.316406 Z M 187.539062 19.316406 " fill-opacity="1" fill-rule="nonzero"/></g><path fill="#20c997" d="M 270.515625 194.988281 C 270.515625 241.929688 232.976562 279.980469 186.671875 279.980469 C 140.363281 279.980469 102.828125 241.929688 102.828125 194.988281 C 102.828125 148.050781 140.363281 109.996094 186.671875 109.996094 C 205.035156 109.996094 222.015625 115.980469 235.828125 126.128906 " fill-opacity="1" fill-rule="nonzero"/><path fill="#ffffff" d="M 186.671875 296.28125 C 173.132812 296.28125 159.988281 293.589844 147.613281 288.28125 C 135.679688 283.164062 124.96875 275.847656 115.78125 266.535156 C 106.605469 257.234375 99.40625 246.40625 94.375 234.347656 C 89.167969 221.871094 86.527344 208.628906 86.527344 194.988281 C 86.527344 181.347656 89.167969 168.105469 94.375 155.628906 C 99.40625 143.570312 106.605469 132.742188 115.78125 123.445312 C 124.96875 114.128906 135.679688 106.8125 147.613281 101.695312 C 159.988281 96.386719 173.132812 93.695312 186.671875 93.695312 C 207.964844 93.695312 228.300781 100.371094 245.480469 112.992188 L 226.175781 139.261719 C 214.632812 130.78125 200.96875 126.296875 186.671875 126.296875 C 149.425781 126.296875 119.128906 157.109375 119.128906 194.988281 C 119.128906 232.867188 149.425781 263.683594 186.671875 263.683594 C 223.914062 263.683594 254.214844 232.867188 254.214844 194.988281 L 286.816406 194.988281 C 286.816406 208.628906 284.175781 221.871094 278.96875 234.347656 C 273.9375 246.40625 266.734375 257.234375 257.5625 266.535156 C 248.371094 275.847656 237.664062 283.164062 225.730469 288.28125 C 213.351562 293.589844 200.210938 296.28125 186.671875 296.28125 Z M 186.671875 296.28125 " fill-opacity="1" fill-rule="nonzero"/><path fill="#ffffff" d="M 182.101562 177.984375 L 286.503906 177.984375 L 286.503906 210.582031 L 182.101562 210.582031 Z M 182.101562 177.984375 " fill-opacity="1" fill-rule="nonzero"/></svg>