<svg xmlns="http://www.w3.org/2000/svg" xmlns:xlink="http://www.w3.org/1999/xlink" width="500" zoomAndPan="magnify" viewBox="0 0 375 374.999991" height="500" preserveAspectRatio="xMidYMid meet" version="1.0"><defs><clipPath id="8a35021c4d"><path d="M 11.832031 11.832031 L 361.332031 11.832031 L 361.332031 361.332031 L 11.832031 361.332031 Z M 11.832031 11.832031 " clip-rule="nonzero"/></clipPath></defs><g clip-path="url(#8a35021c4d)"><path fill="#20c997" d="M 186.582031 11.832031 C 283.09375 11.832031 361.332031 90.066406 361.332031 186.582031 C 361.332031 283.09375 283.09375 361.332031 186.582031 361.332031 C 90.066406 361.332031 11.832031 283.09375 11.832031 186.582031 C 11.832031 90.066406 90.066406 11.832031 186.582031 11.832031 " fill-opacity="1" fill-rule="evenodd"/></g><path fill="#ffffff" d="M 110.8125 81.730469 L 217.949219 81.730469 C 218.882812 81.730469 219.726562 82.113281 220.335938 82.726562 L 271.714844 134.109375 C 272.371094 134.765625 272.699219 135.621094 272.699219 136.480469 L 272.699219 281.085938 C 272.699219 283.933594 271.535156 286.519531 269.664062 288.394531 C 267.789062 290.269531 265.199219 291.429688 262.351562 291.429688 L 110.8125 291.429688 C 107.960938 291.429688 105.375 290.269531 103.5 288.394531 C 101.628906 286.519531 100.464844 283.933594 100.464844 281.085938 L 100.464844 92.074219 C 100.464844 89.230469 101.628906 86.640625 103.5 84.765625 C 105.375 82.894531 107.960938 81.730469 110.8125 81.730469 Z M 216.558594 88.441406 L 110.8125 88.441406 C 109.8125 88.441406 108.90625 88.851562 108.246094 89.511719 C 107.585938 90.171875 107.175781 91.082031 107.175781 92.078125 L 107.175781 281.085938 C 107.175781 282.082031 107.585938 282.988281 108.246094 283.652344 C 108.90625 284.3125 109.8125 284.722656 110.8125 284.722656 L 262.351562 284.722656 C 263.347656 284.722656 264.257812 284.3125 264.917969 283.652344 C 265.578125 282.988281 265.988281 282.082031 265.988281 281.085938 L 265.988281 137.871094 L 216.558594 88.441406 " fill-opacity="1" fill-rule="nonzero"/><path fill="#ffffff" d="M 251.214844 291.429688 L 121.878906 291.429688 C 120.261719 291.429688 118.910156 290.285156 118.59375 288.761719 C 118.480469 288.355469 118.394531 287.953125 118.335938 287.554688 C 118.257812 287.042969 118.21875 286.535156 118.21875 286.035156 L 118.21875 248.011719 C 118.21875 245.164062 119.382812 242.578125 121.253906 240.703125 C 123.128906 238.828125 125.714844 237.664062 128.5625 237.664062 L 244.597656 237.664062 C 247.445312 237.664062 250.03125 238.828125 251.90625 240.703125 C 253.78125 242.578125 254.941406 245.164062 254.941406 248.011719 L 254.941406 286.035156 C 254.941406 286.535156 254.902344 287.042969 254.828125 287.554688 C 254.753906 288.046875 254.636719 288.550781 254.480469 289.058594 L 254.488281 289.0625 C 254.039062 290.527344 252.675781 291.464844 251.214844 291.429688 Z M 124.929688 284.722656 L 248.234375 284.722656 L 248.234375 248.011719 C 248.234375 247.015625 247.824219 246.109375 247.164062 245.449219 C 246.5 244.789062 245.59375 244.375 244.597656 244.375 L 128.5625 244.375 C 127.566406 244.375 126.660156 244.789062 126 245.449219 C 125.339844 246.109375 124.929688 247.015625 124.929688 248.011719 L 124.929688 284.722656 " fill-opacity="1" fill-rule="nonzero"/><path fill="#ffffff" d="M 136.398438 278.363281 L 136.398438 250.734375 L 141.980469 250.734375 L 141.980469 261.605469 L 152.910156 261.605469 L 152.910156 250.734375 L 158.488281 250.734375 L 158.488281 278.363281 L 152.910156 278.363281 L 152.910156 266.28125 L 141.980469 266.28125 L 141.980469 278.363281 Z M 170.472656 278.363281 L 170.472656 255.410156 L 162.277344 255.410156 L 162.277344 250.734375 L 184.234375 250.734375 L 184.234375 255.410156 L 176.058594 255.410156 L 176.058594 278.363281 Z M 187.761719 278.363281 L 187.761719 250.734375 L 196.113281 250.734375 L 201.125 269.582031 L 206.078125 250.734375 L 214.449219 250.734375 L 214.449219 278.363281 L 209.269531 278.363281 L 209.269531 256.613281 L 203.78125 278.363281 L 198.410156 278.363281 L 192.941406 256.613281 L 192.941406 278.363281 Z M 220.140625 278.363281 L 220.140625 250.957031 L 225.71875 250.957031 L 225.71875 273.707031 L 239.589844 273.707031 L 239.589844 278.363281 L 220.140625 278.363281 " fill-opacity="1" fill-rule="nonzero"/><path fill="#ffffff" d="M 269.042969 139.820312 L 218.078125 139.675781 L 218.078125 136.332031 L 218.066406 139.683594 C 216.214844 139.679688 214.71875 138.175781 214.722656 136.324219 C 214.722656 136.230469 214.726562 136.136719 214.734375 136.042969 L 214.605469 85.09375 L 214.59375 85.09375 C 214.589844 83.242188 216.085938 81.734375 217.941406 81.730469 C 218.878906 81.730469 219.726562 82.109375 220.339844 82.730469 L 271.714844 134.109375 C 273.027344 135.417969 273.027344 137.542969 271.714844 138.851562 C 270.980469 139.585938 269.996094 139.910156 269.042969 139.820312 Z M 221.414062 132.996094 L 261.230469 133.113281 L 221.308594 93.195312 Z M 221.414062 132.996094 " fill-opacity="1" fill-rule="nonzero"/></svg>