<svg xmlns="http://www.w3.org/2000/svg" xmlns:xlink="http://www.w3.org/1999/xlink" width="500" zoomAndPan="magnify" viewBox="0 0 375 374.999991" height="500" preserveAspectRatio="xMidYMid meet" version="1.0"><defs><clipPath id="387065c977"><path d="M 12.839844 12.839844 L 362.339844 12.839844 L 362.339844 362.339844 L 12.839844 362.339844 Z M 12.839844 12.839844 " clip-rule="nonzero"/></clipPath></defs><g clip-path="url(#387065c977)"><path fill="#20c997" d="M 362.339844 187.589844 C 362.339844 210.355469 357.988281 232.101562 350.066406 252.058594 C 345.824219 262.722656 340.570312 272.878906 334.40625 282.394531 C 326.734375 294.265625 317.65625 305.140625 307.414062 314.785156 C 301.414062 320.441406 295.023438 325.667969 288.273438 330.4375 C 259.816406 350.535156 225.085938 362.339844 187.589844 362.339844 C 150.09375 362.339844 115.367188 350.535156 86.90625 330.4375 C 78.457031 324.472656 70.574219 317.789062 63.332031 310.457031 C 32.113281 278.894531 12.839844 235.488281 12.839844 187.589844 C 12.839844 139.691406 32.113281 96.28125 63.332031 64.722656 C 71 56.960938 79.394531 49.921875 88.40625 43.703125 C 116.574219 24.238281 150.75 12.839844 187.589844 12.839844 C 224.429688 12.839844 258.601562 24.238281 286.777344 43.703125 C 293.660156 48.445312 300.179688 53.679688 306.292969 59.351562 C 317 69.25 326.453125 80.484375 334.410156 92.78125 C 340.574219 102.296875 345.828125 112.453125 350.066406 123.125 C 357.988281 143.074219 362.339844 164.820312 362.339844 187.589844 Z M 362.339844 187.589844 " fill-opacity="1" fill-rule="nonzero"/></g><path fill="#ffffff" d="M 279.777344 171.867188 C 274.914062 157.761719 254.96875 157.761719 251.078125 169.4375 C 247.191406 181.109375 260.324219 187.917969 280.75 194.730469 C 301.179688 201.539062 313.824219 219.539062 311.394531 235.585938 C 308.960938 251.636719 302.152344 272.554688 261.78125 272.554688 C 236.550781 272.554688 222.527344 256.78125 215.558594 244.957031 L 238.433594 231.210938 C 238.433594 231.210938 246.214844 247.746094 260.808594 247.746094 C 275.402344 247.746094 281.238281 242.886719 281.238281 231.695312 C 281.238281 218.078125 234.058594 213.214844 226.761719 189.867188 C 219.464844 166.519531 229.191406 133.445312 263.238281 135.875 C 284.519531 137.394531 296.488281 147.847656 302.476562 155.46875 Z M 279.777344 171.867188 " fill-opacity="1" fill-rule="nonzero"/><path fill="#ffffff" d="M 173.742188 138.304688 L 173.742188 231.695312 C 173.742188 242.886719 164.015625 248.722656 154.285156 246.773438 C 144.558594 244.828125 140.179688 233.15625 140.179688 233.15625 L 117.804688 248.234375 C 117.804688 248.234375 122.671875 270.605469 153.3125 272.554688 C 183.957031 274.5 201.464844 256.019531 201.464844 240.453125 L 201.464844 138.304688 Z M 173.742188 138.304688 " fill-opacity="1" fill-rule="nonzero"/><path fill="#ffffff" d="M 63.332031 43.703125 L 63.332031 310.457031 C 70.574219 317.789062 78.457031 324.472656 86.90625 330.4375 L 288.273438 330.4375 C 295.023438 325.667969 301.414062 320.441406 307.414062 314.785156 L 78.980469 314.785156 L 78.980469 59.351562 L 334.40625 59.351562 L 334.40625 282.394531 C 340.570312 272.878906 345.824219 262.722656 350.066406 252.058594 L 350.066406 43.703125 Z M 63.332031 43.703125 " fill-opacity="1" fill-rule="nonzero"/><path fill="#000000" d="M 100.539062 244.34375 C 100.539062 259.65625 88.125 272.066406 72.8125 272.066406 C 57.5 272.066406 45.085938 259.65625 45.085938 244.34375 C 45.085938 229.035156 57.5 216.621094 72.8125 216.621094 C 88.125 216.621094 100.539062 229.035156 100.539062 244.34375 Z M 100.539062 244.34375 " fill-opacity="1" fill-rule="nonzero"/></svg>