<svg xmlns="http://www.w3.org/2000/svg" xmlns:xlink="http://www.w3.org/1999/xlink" width="500" zoomAndPan="magnify" viewBox="0 0 375 374.999991" height="500" preserveAspectRatio="xMidYMid meet" version="1.0"><defs><clipPath id="86faa401f3"><path d="M 12.304688 12.304688 L 362.554688 12.304688 L 362.554688 362.554688 L 12.304688 362.554688 Z M 12.304688 12.304688 " clip-rule="nonzero"/></clipPath></defs><g clip-path="url(#86faa401f3)"><path fill="#20c997" d="M 362.558594 187.4375 C 362.558594 190.300781 362.488281 193.167969 362.347656 196.027344 C 362.207031 198.890625 361.996094 201.75 361.714844 204.601562 C 361.4375 207.453125 361.085938 210.296875 360.664062 213.132812 C 360.242188 215.96875 359.753906 218.789062 359.195312 221.601562 C 358.636719 224.414062 358.007812 227.207031 357.3125 229.988281 C 356.617188 232.769531 355.851562 235.53125 355.019531 238.273438 C 354.1875 241.015625 353.289062 243.734375 352.324219 246.433594 C 351.355469 249.132812 350.324219 251.804688 349.230469 254.453125 C 348.132812 257.101562 346.972656 259.722656 345.746094 262.3125 C 344.519531 264.902344 343.230469 267.460938 341.882812 269.988281 C 340.53125 272.519531 339.117188 275.011719 337.644531 277.46875 C 336.171875 279.925781 334.636719 282.347656 333.046875 284.730469 C 331.453125 287.113281 329.804688 289.457031 328.097656 291.757812 C 326.390625 294.0625 324.625 296.320312 322.808594 298.535156 C 320.988281 300.75 319.117188 302.917969 317.195312 305.042969 C 315.269531 307.167969 313.292969 309.242188 311.265625 311.269531 C 309.238281 313.296875 307.164062 315.269531 305.042969 317.195312 C 302.917969 319.121094 300.75 320.992188 298.53125 322.808594 C 296.316406 324.628906 294.058594 326.390625 291.757812 328.097656 C 289.453125 329.804688 287.113281 331.457031 284.730469 333.046875 C 282.347656 334.640625 279.925781 336.171875 277.464844 337.648438 C 275.007812 339.121094 272.515625 340.53125 269.988281 341.882812 C 267.460938 343.234375 264.902344 344.523438 262.308594 345.746094 C 259.71875 346.972656 257.101562 348.132812 254.453125 349.230469 C 251.804688 350.328125 249.128906 351.359375 246.433594 352.324219 C 243.734375 353.289062 241.011719 354.1875 238.269531 355.019531 C 235.527344 355.851562 232.765625 356.617188 229.984375 357.3125 C 227.207031 358.011719 224.410156 358.636719 221.597656 359.195312 C 218.789062 359.757812 215.964844 360.246094 213.128906 360.667969 C 210.296875 361.085938 207.453125 361.4375 204.597656 361.71875 C 201.746094 362 198.890625 362.210938 196.027344 362.351562 C 193.164062 362.492188 190.300781 362.5625 187.433594 362.5625 C 184.566406 362.5625 181.703125 362.492188 178.839844 362.351562 C 175.980469 362.210938 173.121094 362 170.269531 361.71875 C 167.417969 361.4375 164.574219 361.085938 161.738281 360.667969 C 158.902344 360.246094 156.078125 359.757812 153.269531 359.195312 C 150.457031 358.636719 147.664062 358.011719 144.882812 357.3125 C 142.101562 356.617188 139.339844 355.851562 136.597656 355.019531 C 133.855469 354.1875 131.132812 353.289062 128.4375 352.324219 C 125.738281 351.359375 123.0625 350.328125 120.417969 349.230469 C 117.769531 348.132812 115.148438 346.972656 112.558594 345.746094 C 109.96875 344.523438 107.40625 343.234375 104.878906 341.882812 C 102.351562 340.53125 99.859375 339.121094 97.402344 337.648438 C 94.941406 336.171875 92.523438 334.640625 90.140625 333.046875 C 87.757812 331.457031 85.414062 329.804688 83.113281 328.097656 C 80.808594 326.390625 78.550781 324.628906 76.335938 322.808594 C 74.121094 320.992188 71.949219 319.121094 69.828125 317.195312 C 67.703125 315.269531 65.628906 313.296875 63.601562 311.269531 C 61.574219 309.242188 59.597656 307.167969 57.675781 305.042969 C 55.75 302.917969 53.878906 300.75 52.058594 298.535156 C 50.242188 296.320312 48.480469 294.0625 46.773438 291.757812 C 45.066406 289.457031 43.414062 287.113281 41.824219 284.730469 C 40.230469 282.347656 38.699219 279.925781 37.222656 277.46875 C 35.75 275.011719 34.339844 272.519531 32.988281 269.988281 C 31.636719 267.460938 30.347656 264.902344 29.121094 262.3125 C 27.898438 259.722656 26.734375 257.101562 25.640625 254.453125 C 24.542969 251.804688 23.511719 249.132812 22.546875 246.433594 C 21.582031 243.734375 20.679688 241.015625 19.847656 238.273438 C 19.015625 235.53125 18.253906 232.769531 17.558594 229.988281 C 16.859375 227.207031 16.234375 224.414062 15.671875 221.601562 C 15.113281 218.789062 14.625 215.96875 14.203125 213.132812 C 13.785156 210.296875 13.433594 207.453125 13.152344 204.601562 C 12.871094 201.75 12.660156 198.890625 12.519531 196.027344 C 12.378906 193.167969 12.308594 190.300781 12.308594 187.4375 C 12.308594 184.570312 12.378906 181.707031 12.519531 178.84375 C 12.660156 175.980469 12.871094 173.125 13.152344 170.269531 C 13.433594 167.417969 13.785156 164.574219 14.203125 161.738281 C 14.625 158.90625 15.113281 156.082031 15.671875 153.269531 C 16.234375 150.460938 16.859375 147.664062 17.558594 144.882812 C 18.253906 142.105469 19.015625 139.34375 19.847656 136.601562 C 20.679688 133.855469 21.582031 131.136719 22.546875 128.4375 C 23.511719 125.738281 24.542969 123.066406 25.640625 120.417969 C 26.734375 117.769531 27.898438 115.152344 29.121094 112.558594 C 30.347656 109.96875 31.636719 107.410156 32.988281 104.882812 C 34.339844 102.355469 35.75 99.863281 37.222656 97.402344 C 38.699219 94.945312 40.230469 92.523438 41.824219 90.140625 C 43.414062 87.757812 45.066406 85.417969 46.773438 83.113281 C 48.480469 80.8125 50.242188 78.554688 52.058594 76.335938 C 53.878906 74.121094 55.75 71.953125 57.675781 69.828125 C 59.597656 67.707031 61.574219 65.628906 63.601562 63.605469 C 65.628906 61.578125 67.703125 59.601562 69.828125 57.675781 C 71.949219 55.75 74.121094 53.878906 76.335938 52.0625 C 78.550781 50.242188 80.808594 48.480469 83.113281 46.773438 C 85.414062 45.066406 87.757812 43.417969 90.140625 41.824219 C 92.523438 40.230469 94.941406 38.699219 97.402344 37.226562 C 99.859375 35.753906 102.351562 34.339844 104.878906 32.988281 C 107.40625 31.636719 109.96875 30.351562 112.558594 29.125 C 115.148438 27.898438 117.769531 26.738281 120.417969 25.640625 C 123.0625 24.542969 125.738281 23.511719 128.4375 22.546875 C 131.132812 21.582031 133.855469 20.683594 136.597656 19.851562 C 139.339844 19.019531 142.101562 18.253906 144.882812 17.558594 C 147.664062 16.863281 150.457031 16.234375 153.269531 15.675781 C 156.078125 15.117188 158.902344 14.625 161.738281 14.207031 C 164.574219 13.785156 167.417969 13.433594 170.269531 13.152344 C 173.121094 12.871094 175.980469 12.664062 178.839844 12.523438 C 181.703125 12.382812 184.566406 12.3125 187.433594 12.3125 C 190.300781 12.3125 193.164062 12.382812 196.027344 12.523438 C 198.890625 12.664062 201.746094 12.871094 204.597656 13.152344 C 207.453125 13.433594 210.296875 13.785156 213.128906 14.207031 C 215.964844 14.625 218.789062 15.117188 221.597656 15.675781 C 224.410156 16.234375 227.207031 16.863281 229.984375 17.558594 C 232.765625 18.253906 235.527344 19.019531 238.269531 19.851562 C 241.011719 20.683594 243.734375 21.582031 246.433594 22.546875 C 249.128906 23.511719 251.804688 24.542969 254.453125 25.640625 C 257.101562 26.738281 259.71875 27.898438 262.308594 29.125 C 264.902344 30.351562 267.460938 31.636719 269.988281 32.988281 C 272.515625 34.339844 275.007812 35.753906 277.464844 37.226562 C 279.925781 38.699219 282.347656 40.230469 284.730469 41.824219 C 287.113281 43.417969 289.453125 45.066406 291.757812 46.773438 C 294.058594 48.480469 296.316406 50.242188 298.53125 52.0625 C 300.75 53.878906 302.917969 55.753906 305.042969 57.675781 C 307.164062 59.601562 309.238281 61.578125 311.265625 63.605469 C 313.292969 65.628906 315.269531 67.707031 317.195312 69.828125 C 319.117188 71.953125 320.988281 74.121094 322.808594 76.335938 C 324.625 78.554688 326.390625 80.8125 328.097656 83.113281 C 329.804688 85.417969 331.453125 87.757812 333.046875 90.140625 C 334.636719 92.523438 336.171875 94.945312 337.644531 97.402344 C 339.117188 99.863281 340.53125 102.355469 341.882812 104.882812 C 343.230469 107.410156 344.519531 109.96875 345.746094 112.558594 C 346.972656 115.152344 348.132812 117.769531 349.230469 120.417969 C 350.324219 123.066406 351.355469 125.738281 352.324219 128.4375 C 353.289062 131.136719 354.1875 133.855469 355.019531 136.601562 C 355.851562 139.34375 356.617188 142.105469 357.3125 144.882812 C 358.007812 147.664062 358.636719 150.460938 359.195312 153.269531 C 359.753906 156.082031 360.242188 158.90625 360.664062 161.738281 C 361.085938 164.574219 361.4375 167.417969 361.714844 170.269531 C 361.996094 173.125 362.207031 175.980469 362.347656 178.84375 C 362.488281 181.707031 362.558594 184.570312 362.558594 187.4375 Z M 362.558594 187.4375 " fill-opacity="1" fill-rule="nonzero"/></g><path fill="#ffffff" d="M 143.335938 103.269531 C 143.335938 104.035156 143.296875 104.796875 143.222656 105.554688 C 143.148438 106.316406 143.035156 107.070312 142.886719 107.816406 C 142.738281 108.566406 142.550781 109.304688 142.332031 110.035156 C 142.109375 110.765625 141.851562 111.484375 141.558594 112.191406 C 141.269531 112.894531 140.941406 113.585938 140.582031 114.257812 C 140.222656 114.929688 139.832031 115.585938 139.40625 116.21875 C 138.980469 116.855469 138.527344 117.464844 138.042969 118.054688 C 137.558594 118.648438 137.046875 119.210938 136.507812 119.75 C 135.96875 120.289062 135.402344 120.804688 134.8125 121.289062 C 134.222656 121.773438 133.609375 122.226562 132.976562 122.648438 C 132.339844 123.074219 131.6875 123.464844 131.015625 123.824219 C 130.339844 124.183594 129.652344 124.511719 128.945312 124.804688 C 128.242188 125.09375 127.523438 125.351562 126.792969 125.574219 C 126.0625 125.796875 125.324219 125.980469 124.574219 126.128906 C 123.824219 126.277344 123.070312 126.390625 122.3125 126.464844 C 121.550781 126.539062 120.789062 126.578125 120.027344 126.578125 C 119.265625 126.578125 118.503906 126.539062 117.742188 126.464844 C 116.984375 126.390625 116.230469 126.277344 115.480469 126.128906 C 114.730469 125.980469 113.992188 125.796875 113.261719 125.574219 C 112.53125 125.351562 111.8125 125.09375 111.109375 124.804688 C 110.402344 124.511719 109.714844 124.183594 109.039062 123.824219 C 108.367188 123.464844 107.714844 123.074219 107.078125 122.648438 C 106.445312 122.226562 105.832031 121.773438 105.242188 121.289062 C 104.652344 120.804688 104.085938 120.289062 103.546875 119.75 C 103.007812 119.210938 102.496094 118.648438 102.011719 118.054688 C 101.527344 117.464844 101.070312 116.855469 100.648438 116.21875 C 100.222656 115.585938 99.832031 114.929688 99.472656 114.257812 C 99.113281 113.585938 98.785156 112.894531 98.492188 112.191406 C 98.203125 111.484375 97.945312 110.765625 97.722656 110.035156 C 97.5 109.304688 97.316406 108.566406 97.167969 107.816406 C 97.019531 107.070312 96.90625 106.316406 96.832031 105.554688 C 96.757812 104.796875 96.71875 104.035156 96.71875 103.269531 C 96.71875 102.507812 96.757812 101.746094 96.832031 100.984375 C 96.90625 100.226562 97.019531 99.472656 97.167969 98.722656 C 97.316406 97.976562 97.5 97.234375 97.722656 96.503906 C 97.945312 95.773438 98.203125 95.054688 98.492188 94.351562 C 98.785156 93.644531 99.113281 92.957031 99.472656 92.285156 C 99.832031 91.609375 100.222656 90.957031 100.648438 90.320312 C 101.070312 89.6875 101.527344 89.074219 102.011719 88.484375 C 102.496094 87.894531 103.007812 87.328125 103.546875 86.789062 C 104.085938 86.25 104.652344 85.738281 105.242188 85.253906 C 105.832031 84.769531 106.445312 84.316406 107.078125 83.890625 C 107.714844 83.46875 108.367188 83.074219 109.039062 82.714844 C 109.714844 82.355469 110.402344 82.03125 111.109375 81.738281 C 111.8125 81.445312 112.53125 81.1875 113.261719 80.964844 C 113.992188 80.746094 114.730469 80.558594 115.480469 80.410156 C 116.230469 80.261719 116.984375 80.148438 117.742188 80.074219 C 118.503906 80 119.265625 79.964844 120.027344 79.964844 C 120.789062 79.964844 121.550781 80 122.3125 80.074219 C 123.070312 80.148438 123.824219 80.261719 124.574219 80.410156 C 125.324219 80.558594 126.0625 80.746094 126.792969 80.964844 C 127.523438 81.1875 128.242188 81.445312 128.945312 81.738281 C 129.652344 82.03125 130.339844 82.355469 131.015625 82.714844 C 131.6875 83.074219 132.339844 83.46875 132.976562 83.890625 C 133.609375 84.316406 134.222656 84.769531 134.8125 85.253906 C 135.402344 85.738281 135.96875 86.25 136.507812 86.789062 C 137.046875 87.328125 137.558594 87.894531 138.042969 88.484375 C 138.527344 89.074219 138.980469 89.6875 139.40625 90.320312 C 139.832031 90.957031 140.222656 91.609375 140.582031 92.285156 C 140.941406 92.957031 141.269531 93.644531 141.558594 94.351562 C 141.851562 95.054688 142.109375 95.773438 142.332031 96.503906 C 142.550781 97.234375 142.738281 97.976562 142.886719 98.722656 C 143.035156 99.472656 143.148438 100.226562 143.222656 100.984375 C 143.296875 101.746094 143.335938 102.507812 143.335938 103.269531 Z M 143.335938 103.269531 " fill-opacity="1" fill-rule="nonzero"/><path fill="#ffffff" d="M 99.933594 143.761719 L 139.976562 143.761719 L 139.976562 272.574219 L 99.933594 272.574219 Z M 99.933594 143.761719 " fill-opacity="1" fill-rule="nonzero"/><path fill="#ffffff" d="M 165.160156 143.761719 L 203.269531 143.761719 L 203.269531 272.574219 L 165.160156 272.574219 Z M 165.160156 143.761719 " fill-opacity="1" fill-rule="nonzero"/><path fill="#ffffff" d="M 166.808594 212.34375 L 204.917969 212.34375 L 204.917969 272.574219 L 166.808594 272.574219 Z M 166.808594 212.34375 " fill-opacity="1" fill-rule="nonzero"/><path fill="#ffffff" d="M 204.917969 212.34375 C 204.917969 212.34375 204.324219 195.636719 208.730469 186.949219 C 208.730469 186.949219 213.136719 176.253906 226.984375 176.1875 C 226.984375 176.1875 243.226562 173.351562 247.886719 189.46875 C 247.886719 189.46875 249.648438 198.410156 249.648438 202.1875 C 249.648438 205.964844 249.773438 272.574219 249.773438 272.574219 L 289.691406 272.574219 L 289.691406 198.789062 C 289.691406 198.789062 292.585938 157.109375 267.570312 145.691406 C 267.570312 145.691406 226.4375 127.226562 204.109375 161.140625 C 204.109375 161.140625 199.242188 164.496094 198.566406 155.097656 C 197.898438 145.691406 192.191406 169.535156 192.023438 170.039062 C 191.855469 170.542969 198.566406 217.550781 198.566406 217.550781 Z M 204.917969 212.34375 " fill-opacity="1" fill-rule="nonzero"/></svg>