<svg xmlns="http://www.w3.org/2000/svg" xmlns:xlink="http://www.w3.org/1999/xlink" width="500" zoomAndPan="magnify" viewBox="0 0 375 374.999991" height="500" preserveAspectRatio="xMidYMid meet" version="1.0"><defs><clipPath id="0060e58321"><path d="M 12.167969 13.324219 L 361.667969 13.324219 L 361.667969 362.824219 L 12.167969 362.824219 Z M 12.167969 13.324219 " clip-rule="nonzero"/></clipPath></defs><g clip-path="url(#0060e58321)"><path fill="#20c997" d="M 361.695312 188.054688 C 361.695312 190.914062 361.625 193.773438 361.484375 196.628906 C 361.347656 199.488281 361.136719 202.335938 360.855469 205.183594 C 360.574219 208.03125 360.226562 210.867188 359.804688 213.695312 C 359.386719 216.527344 358.898438 219.34375 358.339844 222.148438 C 357.78125 224.953125 357.152344 227.742188 356.460938 230.515625 C 355.765625 233.292969 355 236.046875 354.171875 238.785156 C 353.339844 241.519531 352.445312 244.234375 351.480469 246.929688 C 350.519531 249.621094 349.488281 252.289062 348.394531 254.929688 C 347.300781 257.574219 346.140625 260.1875 344.917969 262.773438 C 343.695312 265.359375 342.410156 267.910156 341.0625 270.433594 C 339.714844 272.957031 338.304688 275.445312 336.835938 277.898438 C 335.363281 280.351562 333.835938 282.765625 332.246094 285.144531 C 330.65625 287.519531 329.011719 289.859375 327.304688 292.15625 C 325.601562 294.453125 323.84375 296.707031 322.027344 298.917969 C 320.214844 301.128906 318.347656 303.292969 316.425781 305.414062 C 314.507812 307.53125 312.535156 309.601562 310.511719 311.625 C 308.488281 313.648438 306.417969 315.617188 304.300781 317.539062 C 302.179688 319.460938 300.015625 321.328125 297.804688 323.140625 C 295.59375 324.957031 293.339844 326.714844 291.042969 328.417969 C 288.746094 330.121094 286.410156 331.769531 284.03125 333.359375 C 281.652344 334.945312 279.238281 336.476562 276.785156 337.945312 C 274.332031 339.417969 271.84375 340.828125 269.320312 342.175781 C 266.796875 343.523438 264.246094 344.808594 261.660156 346.03125 C 259.074219 347.253906 256.460938 348.414062 253.816406 349.507812 C 251.175781 350.601562 248.507812 351.628906 245.816406 352.59375 C 243.121094 353.558594 240.40625 354.453125 237.671875 355.285156 C 234.933594 356.113281 232.179688 356.878906 229.402344 357.574219 C 226.628906 358.265625 223.839844 358.894531 221.035156 359.453125 C 218.230469 360.007812 215.414062 360.5 212.582031 360.917969 C 209.753906 361.335938 206.917969 361.6875 204.070312 361.96875 C 201.226562 362.25 198.375 362.457031 195.515625 362.597656 C 192.660156 362.738281 189.800781 362.808594 186.941406 362.808594 C 184.082031 362.808594 181.222656 362.738281 178.367188 362.597656 C 175.511719 362.457031 172.660156 362.25 169.8125 361.96875 C 166.96875 361.6875 164.128906 361.335938 161.300781 360.917969 C 158.472656 360.5 155.652344 360.007812 152.847656 359.453125 C 150.042969 358.894531 147.253906 358.265625 144.480469 357.574219 C 141.707031 356.878906 138.949219 356.113281 136.214844 355.285156 C 133.476562 354.453125 130.761719 353.558594 128.070312 352.59375 C 125.375 351.628906 122.707031 350.601562 120.066406 349.507812 C 117.425781 348.414062 114.808594 347.253906 112.226562 346.03125 C 109.640625 344.808594 107.085938 343.523438 104.5625 342.175781 C 102.042969 340.828125 99.554688 339.417969 97.101562 337.945312 C 94.648438 336.476562 92.230469 334.945312 89.855469 333.359375 C 87.476562 331.769531 85.136719 330.121094 82.839844 328.417969 C 80.542969 326.714844 78.289062 324.957031 76.078125 323.140625 C 73.867188 321.328125 71.703125 319.460938 69.585938 317.539062 C 67.464844 315.617188 65.394531 313.648438 63.371094 311.625 C 61.351562 309.601562 59.378906 307.53125 57.457031 305.414062 C 55.535156 303.292969 53.667969 301.128906 51.855469 298.917969 C 50.039062 296.707031 48.28125 294.453125 46.578125 292.15625 C 44.875 289.859375 43.226562 287.519531 41.640625 285.144531 C 40.050781 282.765625 38.519531 280.351562 37.050781 277.898438 C 35.578125 275.445312 34.171875 272.957031 32.824219 270.433594 C 31.472656 267.910156 30.1875 265.359375 28.964844 262.773438 C 27.742188 260.1875 26.585938 257.574219 25.488281 254.929688 C 24.394531 252.289062 23.367188 249.621094 22.402344 246.929688 C 21.441406 244.234375 20.542969 241.519531 19.710938 238.785156 C 18.882812 236.046875 18.121094 233.292969 17.425781 230.515625 C 16.730469 227.742188 16.101562 224.953125 15.546875 222.148438 C 14.988281 219.34375 14.5 216.527344 14.078125 213.695312 C 13.660156 210.867188 13.308594 208.03125 13.027344 205.183594 C 12.75 202.335938 12.539062 199.488281 12.398438 196.628906 C 12.257812 193.773438 12.1875 190.914062 12.1875 188.054688 C 12.1875 185.195312 12.257812 182.335938 12.398438 179.480469 C 12.539062 176.625 12.75 173.773438 13.027344 170.925781 C 13.308594 168.078125 13.660156 165.242188 14.078125 162.414062 C 14.5 159.585938 14.988281 156.765625 15.546875 153.960938 C 16.101562 151.15625 16.730469 148.367188 17.425781 145.59375 C 18.121094 142.820312 18.882812 140.0625 19.710938 137.328125 C 20.542969 134.589844 21.441406 131.875 22.402344 129.183594 C 23.367188 126.488281 24.394531 123.820312 25.488281 121.179688 C 26.585938 118.535156 27.742188 115.921875 28.964844 113.335938 C 30.1875 110.753906 31.472656 108.199219 32.824219 105.675781 C 34.171875 103.152344 35.578125 100.667969 37.050781 98.214844 C 38.519531 95.761719 40.050781 93.34375 41.640625 90.964844 C 43.226562 88.589844 44.875 86.25 46.578125 83.953125 C 48.28125 81.65625 50.039062 79.402344 51.855469 77.191406 C 53.667969 74.980469 55.535156 72.816406 57.457031 70.695312 C 59.378906 68.578125 61.351562 66.507812 63.371094 64.484375 C 65.394531 62.460938 67.464844 60.492188 69.585938 58.570312 C 71.703125 56.648438 73.867188 54.78125 76.078125 52.96875 C 78.289062 51.152344 80.542969 49.394531 82.839844 47.691406 C 85.136719 45.988281 87.476562 44.339844 89.855469 42.753906 C 92.230469 41.164062 94.648438 39.632812 97.101562 38.164062 C 99.554688 36.691406 102.042969 35.285156 104.5625 33.933594 C 107.085938 32.585938 109.640625 31.300781 112.226562 30.078125 C 114.808594 28.855469 117.425781 27.699219 120.066406 26.601562 C 122.707031 25.507812 125.375 24.480469 128.070312 23.515625 C 130.761719 22.550781 133.476562 21.65625 136.214844 20.824219 C 138.949219 19.996094 141.707031 19.234375 144.480469 18.539062 C 147.253906 17.84375 150.042969 17.214844 152.847656 16.660156 C 155.652344 16.101562 158.472656 15.613281 161.300781 15.191406 C 164.128906 14.773438 166.96875 14.421875 169.8125 14.140625 C 172.660156 13.863281 175.511719 13.652344 178.367188 13.511719 C 181.222656 13.371094 184.082031 13.300781 186.941406 13.300781 C 189.800781 13.300781 192.660156 13.371094 195.515625 13.511719 C 198.375 13.652344 201.226562 13.863281 204.070312 14.140625 C 206.917969 14.421875 209.753906 14.773438 212.582031 15.191406 C 215.414062 15.613281 218.230469 16.101562 221.035156 16.660156 C 223.839844 17.214844 226.628906 17.84375 229.402344 18.539062 C 232.179688 19.234375 234.933594 19.996094 237.671875 20.824219 C 240.40625 21.65625 243.121094 22.550781 245.816406 23.515625 C 248.507812 24.480469 251.175781 25.507812 253.816406 26.601562 C 256.460938 27.699219 259.074219 28.855469 261.660156 30.078125 C 264.246094 31.300781 266.796875 32.585938 269.320312 33.933594 C 271.84375 35.285156 274.332031 36.691406 276.785156 38.164062 C 279.238281 39.632812 281.652344 41.164062 284.03125 42.753906 C 286.410156 44.339844 288.746094 45.988281 291.042969 47.691406 C 293.339844 49.394531 295.59375 51.152344 297.804688 52.96875 C 300.015625 54.78125 302.179688 56.648438 304.300781 58.570312 C 306.417969 60.492188 308.488281 62.460938 310.511719 64.484375 C 312.535156 66.507812 314.507812 68.578125 316.425781 70.695312 C 318.347656 72.816406 320.214844 74.980469 322.027344 77.191406 C 323.84375 79.402344 325.601562 81.65625 327.304688 83.953125 C 329.011719 86.25 330.65625 88.589844 332.246094 90.964844 C 333.835938 93.34375 335.363281 95.761719 336.835938 98.214844 C 338.304688 100.667969 339.714844 103.152344 341.0625 105.675781 C 342.410156 108.199219 343.695312 110.753906 344.917969 113.335938 C 346.140625 115.921875 347.300781 118.535156 348.394531 121.179688 C 349.488281 123.820312 350.519531 126.488281 351.480469 129.183594 C 352.445312 131.875 353.339844 134.589844 354.171875 137.328125 C 355 140.0625 355.765625 142.820312 356.460938 145.59375 C 357.152344 148.367188 357.78125 151.15625 358.339844 153.960938 C 358.898438 156.765625 359.386719 159.585938 359.804688 162.414062 C 360.226562 165.242188 360.574219 168.078125 360.855469 170.925781 C 361.136719 173.773438 361.347656 176.625 361.484375 179.480469 C 361.625 182.335938 361.695312 185.195312 361.695312 188.054688 Z M 361.695312 188.054688 " fill-opacity="1" fill-rule="nonzero"/></g><path fill="#ffffff" d="M 82.507812 154.246094 L 82.507812 259.480469 L 291.375 259.480469 L 291.375 154.246094 L 186.941406 222.46875 Z M 82.507812 154.246094 " fill-opacity="1" fill-rule="nonzero"/><path fill="#ffffff" d="M 82.507812 110.828125 L 82.507812 129.636719 L 186.941406 197.660156 L 291.375 129.636719 L 291.375 110.828125 Z M 82.507812 110.828125 " fill-opacity="1" fill-rule="nonzero"/></svg>