<svg xmlns="http://www.w3.org/2000/svg" xmlns:xlink="http://www.w3.org/1999/xlink" width="9216" zoomAndPan="magnify" viewBox="0 0 6912 1727.999927" height="2304" preserveAspectRatio="xMidYMid meet" version="1.0"><defs><g/></defs><g fill="#3f3f3f" fill-opacity="1"><g transform="translate(1365.731864, 1167.620467)"><g><path d="M 279.859375 6.078125 C 208.585938 6.078125 150.066406 -10.867188 104.296875 -44.765625 C 58.523438 -78.660156 33.898438 -127.1875 30.421875 -190.34375 L 212.078125 -190.34375 C 213.804688 -168.90625 220.175781 -153.257812 231.1875 -143.40625 C 242.195312 -133.5625 256.394531 -128.640625 273.78125 -128.640625 C 289.425781 -128.640625 302.316406 -132.546875 312.453125 -140.359375 C 322.597656 -148.179688 327.671875 -159.046875 327.671875 -172.953125 C 327.671875 -190.921875 319.265625 -204.828125 302.453125 -214.671875 C 285.648438 -224.523438 258.421875 -235.535156 220.765625 -247.703125 C 180.785156 -261.035156 148.484375 -273.925781 123.859375 -286.375 C 99.234375 -298.832031 77.789062 -317.082031 59.53125 -341.125 C 41.28125 -365.175781 32.15625 -396.613281 32.15625 -435.4375 C 32.15625 -474.84375 42.003906 -508.59375 61.703125 -536.6875 C 81.410156 -564.789062 108.644531 -586.085938 143.40625 -600.578125 C 178.175781 -615.066406 217.578125 -622.3125 261.609375 -622.3125 C 332.878906 -622.3125 389.804688 -605.648438 432.390625 -572.328125 C 474.984375 -539.015625 497.726562 -492.226562 500.625 -431.96875 L 315.5 -431.96875 C 314.914062 -450.507812 309.265625 -464.414062 298.546875 -473.6875 C 287.828125 -482.957031 274.066406 -487.59375 257.265625 -487.59375 C 244.515625 -487.59375 234.082031 -483.820312 225.96875 -476.28125 C 217.863281 -468.75 213.8125 -458.03125 213.8125 -444.125 C 213.8125 -432.539062 218.300781 -422.546875 227.28125 -414.140625 C 236.257812 -405.742188 247.410156 -398.503906 260.734375 -392.421875 C 274.066406 -386.335938 293.769531 -378.660156 319.84375 -369.390625 C 358.664062 -356.054688 390.675781 -342.867188 415.875 -329.828125 C 441.082031 -316.796875 462.8125 -298.546875 481.0625 -275.078125 C 499.320312 -251.617188 508.453125 -221.925781 508.453125 -186 C 508.453125 -149.488281 499.320312 -116.75 481.0625 -87.78125 C 462.8125 -58.8125 436.445312 -35.925781 401.96875 -19.125 C 367.5 -2.320312 326.796875 6.078125 279.859375 6.078125 Z M 279.859375 6.078125 "/></g></g></g><g fill="#3f3f3f" fill-opacity="1"><g transform="translate(1904.596109, 1167.620467)"><g><path d="M 219.03125 -476.296875 L 219.03125 -376.34375 L 414.578125 -376.34375 L 414.578125 -246.84375 L 219.03125 -246.84375 L 219.03125 -136.453125 L 440.65625 -136.453125 L 440.65625 0 L 48.671875 0 L 48.671875 -612.75 L 440.65625 -612.75 L 440.65625 -476.296875 Z M 219.03125 -476.296875 "/></g></g></g><g fill="#3f3f3f" fill-opacity="1"><g transform="translate(2380.882601, 1167.620467)"><g><path d="M 358.953125 0 L 237.28125 -225.984375 L 219.03125 -225.984375 L 219.03125 0 L 48.671875 0 L 48.671875 -612.75 L 317.234375 -612.75 C 366.484375 -612.75 408.203125 -604.203125 442.390625 -587.109375 C 476.578125 -570.015625 502.363281 -546.546875 519.75 -516.703125 C 537.132812 -486.859375 545.828125 -453.394531 545.828125 -416.3125 C 545.828125 -374.59375 534.378906 -337.941406 511.484375 -306.359375 C 488.597656 -274.785156 455.140625 -252.335938 411.109375 -239.015625 L 549.296875 0 Z M 219.03125 -342.4375 L 303.328125 -342.4375 C 326.503906 -342.4375 343.882812 -347.941406 355.46875 -358.953125 C 367.0625 -369.960938 372.859375 -385.898438 372.859375 -406.765625 C 372.859375 -426.460938 366.921875 -441.957031 355.046875 -453.25 C 343.171875 -464.550781 325.929688 -470.203125 303.328125 -470.203125 L 219.03125 -470.203125 Z M 219.03125 -342.4375 "/></g></g></g><g fill="#3f3f3f" fill-opacity="1"><g transform="translate(2955.381458, 1167.620467)"><g><path d="M 644.90625 -612.75 L 433.703125 0 L 215.546875 0 L 3.484375 -612.75 L 186 -612.75 L 325.0625 -170.359375 L 463.25 -612.75 Z M 644.90625 -612.75 "/></g></g></g><g fill="#3f3f3f" fill-opacity="1"><g transform="translate(3604.625968, 1167.620467)"><g><path d="M 219.03125 -612.75 L 219.03125 0 L 48.671875 0 L 48.671875 -612.75 Z M 219.03125 -612.75 "/></g></g></g><g fill="#3f3f3f" fill-opacity="1"><g transform="translate(3872.319733, 1167.620467)"><g><path d="M 27.8125 -307.671875 C 27.8125 -367.929688 40.410156 -421.671875 65.609375 -468.890625 C 90.816406 -516.117188 126.597656 -552.914062 172.953125 -579.28125 C 219.304688 -605.644531 272.613281 -618.828125 332.875 -618.828125 C 409.363281 -618.828125 473.679688 -598.398438 525.828125 -557.546875 C 577.972656 -516.703125 611.582031 -461.222656 626.65625 -391.109375 L 443.265625 -391.109375 C 432.253906 -414.285156 417.039062 -431.957031 397.625 -444.125 C 378.21875 -456.300781 355.769531 -462.390625 330.28125 -462.390625 C 290.875 -462.390625 259.4375 -448.335938 235.96875 -420.234375 C 212.5 -392.128906 200.765625 -354.609375 200.765625 -307.671875 C 200.765625 -260.160156 212.5 -222.351562 235.96875 -194.25 C 259.4375 -166.144531 290.875 -152.09375 330.28125 -152.09375 C 355.769531 -152.09375 378.21875 -158.175781 397.625 -170.34375 C 417.039062 -182.519531 432.253906 -200.195312 443.265625 -223.375 L 626.65625 -223.375 C 611.582031 -153.257812 577.972656 -97.773438 525.828125 -56.921875 C 473.679688 -16.078125 409.363281 4.34375 332.875 4.34375 C 272.613281 4.34375 219.304688 -8.835938 172.953125 -35.203125 C 126.597656 -61.566406 90.816406 -98.359375 65.609375 -145.578125 C 40.410156 -192.804688 27.8125 -246.835938 27.8125 -307.671875 Z M 27.8125 -307.671875 "/></g></g></g><g fill="#3f3f3f" fill-opacity="1"><g transform="translate(4531.124913, 1167.620467)"><g><path d="M 219.03125 -476.296875 L 219.03125 -376.34375 L 414.578125 -376.34375 L 414.578125 -246.84375 L 219.03125 -246.84375 L 219.03125 -136.453125 L 440.65625 -136.453125 L 440.65625 0 L 48.671875 0 L 48.671875 -612.75 L 440.65625 -612.75 L 440.65625 -476.296875 Z M 219.03125 -476.296875 "/></g></g></g><g fill="#3f3f3f" fill-opacity="1"><g transform="translate(5007.411495, 1167.620467)"><g><path d="M 279.859375 6.078125 C 208.585938 6.078125 150.066406 -10.867188 104.296875 -44.765625 C 58.523438 -78.660156 33.898438 -127.1875 30.421875 -190.34375 L 212.078125 -190.34375 C 213.804688 -168.90625 220.175781 -153.257812 231.1875 -143.40625 C 242.195312 -133.5625 256.394531 -128.640625 273.78125 -128.640625 C 289.425781 -128.640625 302.316406 -132.546875 312.453125 -140.359375 C 322.597656 -148.179688 327.671875 -159.046875 327.671875 -172.953125 C 327.671875 -190.921875 319.265625 -204.828125 302.453125 -214.671875 C 285.648438 -224.523438 258.421875 -235.535156 220.765625 -247.703125 C 180.785156 -261.035156 148.484375 -273.925781 123.859375 -286.375 C 99.234375 -298.832031 77.789062 -317.082031 59.53125 -341.125 C 41.28125 -365.175781 32.15625 -396.613281 32.15625 -435.4375 C 32.15625 -474.84375 42.003906 -508.59375 61.703125 -536.6875 C 81.410156 -564.789062 108.644531 -586.085938 143.40625 -600.578125 C 178.175781 -615.066406 217.578125 -622.3125 261.609375 -622.3125 C 332.878906 -622.3125 389.804688 -605.648438 432.390625 -572.328125 C 474.984375 -539.015625 497.726562 -492.226562 500.625 -431.96875 L 315.5 -431.96875 C 314.914062 -450.507812 309.265625 -464.414062 298.546875 -473.6875 C 287.828125 -482.957031 274.066406 -487.59375 257.265625 -487.59375 C 244.515625 -487.59375 234.082031 -483.820312 225.96875 -476.28125 C 217.863281 -468.75 213.8125 -458.03125 213.8125 -444.125 C 213.8125 -432.539062 218.300781 -422.546875 227.28125 -414.140625 C 236.257812 -405.742188 247.410156 -398.503906 260.734375 -392.421875 C 274.066406 -386.335938 293.769531 -378.660156 319.84375 -369.390625 C 358.664062 -356.054688 390.675781 -342.867188 415.875 -329.828125 C 441.082031 -316.796875 462.8125 -298.546875 481.0625 -275.078125 C 499.320312 -251.617188 508.453125 -221.925781 508.453125 -186 C 508.453125 -149.488281 499.320312 -116.75 481.0625 -87.78125 C 462.8125 -58.8125 436.445312 -35.925781 401.96875 -19.125 C 367.5 -2.320312 326.796875 6.078125 279.859375 6.078125 Z M 279.859375 6.078125 "/></g></g></g></svg>