<svg xmlns="http://www.w3.org/2000/svg" xmlns:xlink="http://www.w3.org/1999/xlink" width="500" zoomAndPan="magnify" viewBox="0 0 375 374.999991" height="500" preserveAspectRatio="xMidYMid meet" version="1.0"><defs><clipPath id="0587dffd9f"><path d="M 12.0625 12.0625 L 361.5625 12.0625 L 361.5625 361.5625 L 12.0625 361.5625 Z M 12.0625 12.0625 " clip-rule="nonzero"/></clipPath></defs><g clip-path="url(#0587dffd9f)"><path fill="#20c997" d="M 361.5625 186.8125 C 361.5625 189.671875 361.492188 192.53125 361.351562 195.386719 C 361.210938 198.246094 361.003906 201.09375 360.722656 203.941406 C 360.441406 206.789062 360.089844 209.625 359.671875 212.453125 C 359.253906 215.285156 358.761719 218.101562 358.207031 220.90625 C 357.648438 223.710938 357.019531 226.5 356.324219 229.273438 C 355.632812 232.046875 354.867188 234.804688 354.039062 237.539062 C 353.207031 240.277344 352.3125 242.992188 351.347656 245.683594 C 350.382812 248.378906 349.355469 251.042969 348.261719 253.6875 C 347.167969 256.328125 346.007812 258.941406 344.785156 261.527344 C 343.5625 264.113281 342.277344 266.667969 340.929688 269.191406 C 339.582031 271.710938 338.171875 274.199219 336.699219 276.652344 C 335.230469 279.105469 333.703125 281.519531 332.113281 283.898438 C 330.523438 286.277344 328.878906 288.613281 327.171875 290.910156 C 325.46875 293.207031 323.710938 295.460938 321.898438 297.671875 C 320.082031 299.882812 318.214844 302.050781 316.292969 304.167969 C 314.375 306.285156 312.402344 308.359375 310.378906 310.378906 C 308.359375 312.402344 306.285156 314.375 304.167969 316.292969 C 302.050781 318.214844 299.882812 320.082031 297.671875 321.898438 C 295.460938 323.710938 293.207031 325.46875 290.910156 327.171875 C 288.613281 328.878906 286.277344 330.523438 283.898438 332.113281 C 281.519531 333.703125 279.105469 335.230469 276.652344 336.699219 C 274.199219 338.171875 271.710938 339.582031 269.191406 340.929688 C 266.667969 342.277344 264.113281 343.5625 261.527344 344.785156 C 258.941406 346.007812 256.328125 347.167969 253.6875 348.261719 C 251.042969 349.355469 248.378906 350.382812 245.683594 351.347656 C 242.992188 352.3125 240.277344 353.207031 237.539062 354.039062 C 234.804688 354.867188 232.046875 355.632812 229.273438 356.324219 C 226.5 357.019531 223.710938 357.648438 220.90625 358.207031 C 218.101562 358.761719 215.285156 359.253906 212.453125 359.671875 C 209.625 360.089844 206.789062 360.441406 203.941406 360.722656 C 201.09375 361.003906 198.246094 361.210938 195.386719 361.351562 C 192.53125 361.492188 189.671875 361.5625 186.8125 361.5625 C 183.953125 361.5625 181.09375 361.492188 178.238281 361.351562 C 175.382812 361.210938 172.53125 361.003906 169.683594 360.722656 C 166.839844 360.441406 164 360.089844 161.171875 359.671875 C 158.34375 359.253906 155.527344 358.761719 152.722656 358.207031 C 149.917969 357.648438 147.125 357.019531 144.351562 356.324219 C 141.578125 355.632812 138.824219 354.867188 136.085938 354.039062 C 133.347656 353.207031 130.632812 352.3125 127.941406 351.347656 C 125.25 350.382812 122.582031 349.355469 119.9375 348.261719 C 117.296875 347.167969 114.683594 346.007812 112.097656 344.785156 C 109.511719 343.5625 106.957031 342.277344 104.4375 340.929688 C 101.914062 339.582031 99.425781 338.171875 96.972656 336.699219 C 94.519531 335.230469 92.105469 333.703125 89.726562 332.113281 C 87.347656 330.523438 85.011719 328.878906 82.714844 327.171875 C 80.417969 325.46875 78.164062 323.710938 75.953125 321.898438 C 73.742188 320.082031 71.578125 318.214844 69.457031 316.292969 C 67.339844 314.375 65.269531 312.402344 63.246094 310.378906 C 61.222656 308.359375 59.253906 306.285156 57.332031 304.167969 C 55.410156 302.050781 53.542969 299.882812 51.730469 297.671875 C 49.914062 295.460938 48.15625 293.207031 46.453125 290.910156 C 44.75 288.613281 43.101562 286.277344 41.515625 283.898438 C 39.925781 281.519531 38.394531 279.105469 36.925781 276.652344 C 35.453125 274.199219 34.046875 271.710938 32.699219 269.191406 C 31.347656 266.667969 30.0625 264.113281 28.839844 261.527344 C 27.617188 258.941406 26.460938 256.328125 25.363281 253.6875 C 24.269531 251.042969 23.242188 248.378906 22.277344 245.683594 C 21.316406 242.992188 20.417969 240.277344 19.585938 237.539062 C 18.757812 234.804688 17.996094 232.046875 17.300781 229.273438 C 16.605469 226.5 15.980469 223.710938 15.421875 220.90625 C 14.863281 218.101562 14.375 215.285156 13.953125 212.453125 C 13.535156 209.625 13.183594 206.789062 12.90625 203.941406 C 12.625 201.09375 12.414062 198.246094 12.273438 195.386719 C 12.132812 192.53125 12.0625 189.671875 12.0625 186.8125 C 12.0625 183.953125 12.132812 181.09375 12.273438 178.238281 C 12.414062 175.382812 12.625 172.53125 12.90625 169.683594 C 13.183594 166.839844 13.535156 164 13.953125 161.171875 C 14.375 158.34375 14.863281 155.527344 15.421875 152.722656 C 15.980469 149.917969 16.605469 147.125 17.300781 144.351562 C 17.996094 141.578125 18.757812 138.824219 19.585938 136.085938 C 20.417969 133.347656 21.316406 130.632812 22.277344 127.941406 C 23.242188 125.25 24.269531 122.582031 25.363281 119.9375 C 26.460938 117.296875 27.617188 114.683594 28.839844 112.097656 C 30.0625 109.511719 31.347656 106.957031 32.699219 104.4375 C 34.046875 101.914062 35.453125 99.425781 36.925781 96.972656 C 38.394531 94.519531 39.925781 92.105469 41.515625 89.726562 C 43.101562 87.347656 44.75 85.011719 46.453125 82.714844 C 48.15625 80.417969 49.914062 78.164062 51.730469 75.953125 C 53.542969 73.742188 55.410156 71.578125 57.332031 69.457031 C 59.253906 67.339844 61.222656 65.269531 63.246094 63.246094 C 65.269531 61.222656 67.339844 59.253906 69.457031 57.332031 C 71.578125 55.410156 73.742188 53.542969 75.953125 51.730469 C 78.164062 49.914062 80.417969 48.15625 82.714844 46.453125 C 85.011719 44.75 87.347656 43.101562 89.726562 41.515625 C 92.105469 39.925781 94.519531 38.394531 96.972656 36.925781 C 99.425781 35.453125 101.914062 34.046875 104.4375 32.699219 C 106.957031 31.347656 109.511719 30.0625 112.097656 28.839844 C 114.683594 27.617188 117.296875 26.460938 119.9375 25.363281 C 122.582031 24.269531 125.25 23.242188 127.941406 22.277344 C 130.632812 21.316406 133.347656 20.417969 136.085938 19.585938 C 138.824219 18.757812 141.578125 17.996094 144.351562 17.300781 C 147.125 16.605469 149.917969 15.980469 152.722656 15.421875 C 155.527344 14.863281 158.34375 14.375 161.171875 13.953125 C 164 13.535156 166.839844 13.183594 169.683594 12.90625 C 172.53125 12.625 175.382812 12.414062 178.238281 12.273438 C 181.09375 12.132812 183.953125 12.0625 186.8125 12.0625 C 189.671875 12.0625 192.53125 12.132812 195.386719 12.273438 C 198.246094 12.414062 201.09375 12.625 203.941406 12.90625 C 206.789062 13.183594 209.625 13.535156 212.453125 13.953125 C 215.285156 14.375 218.101562 14.863281 220.90625 15.421875 C 223.710938 15.980469 226.5 16.605469 229.273438 17.300781 C 232.046875 17.996094 234.804688 18.757812 237.539062 19.585938 C 240.277344 20.417969 242.992188 21.316406 245.683594 22.277344 C 248.378906 23.242188 251.042969 24.269531 253.6875 25.363281 C 256.328125 26.460938 258.941406 27.617188 261.527344 28.839844 C 264.113281 30.0625 266.667969 31.347656 269.191406 32.699219 C 271.710938 34.046875 274.199219 35.453125 276.652344 36.925781 C 279.105469 38.394531 281.519531 39.925781 283.898438 41.515625 C 286.277344 43.101562 288.613281 44.75 290.910156 46.453125 C 293.207031 48.15625 295.460938 49.914062 297.671875 51.730469 C 299.882812 53.542969 302.050781 55.410156 304.167969 57.332031 C 306.285156 59.253906 308.359375 61.222656 310.378906 63.246094 C 312.402344 65.269531 314.375 67.339844 316.292969 69.457031 C 318.214844 71.578125 320.082031 73.742188 321.898438 75.953125 C 323.710938 78.164062 325.46875 80.417969 327.171875 82.714844 C 328.878906 85.011719 330.523438 87.347656 332.113281 89.726562 C 333.703125 92.105469 335.230469 94.519531 336.699219 96.972656 C 338.171875 99.425781 339.582031 101.914062 340.929688 104.4375 C 342.277344 106.957031 343.5625 109.511719 344.785156 112.097656 C 346.007812 114.683594 347.167969 117.296875 348.261719 119.9375 C 349.355469 122.582031 350.382812 125.25 351.347656 127.941406 C 352.3125 130.632812 353.207031 133.347656 354.039062 136.085938 C 354.867188 138.824219 355.632812 141.578125 356.324219 144.351562 C 357.019531 147.125 357.648438 149.917969 358.207031 152.722656 C 358.761719 155.527344 359.253906 158.34375 359.671875 161.171875 C 360.089844 164 360.441406 166.839844 360.722656 169.683594 C 361.003906 172.53125 361.210938 175.382812 361.351562 178.238281 C 361.492188 181.09375 361.5625 183.953125 361.5625 186.8125 Z M 361.5625 186.8125 " fill-opacity="1" fill-rule="nonzero"/></g><path fill="#ffffff" d="M 174.621094 197.785156 C 145.765625 170.152344 150.238281 157.144531 150.238281 157.144531 C 162.023438 145.765625 160.398438 130.730469 160.398438 130.730469 C 154.300781 122.601562 148.207031 114.476562 142.109375 106.347656 C 142.109375 106.347656 133.980469 92.9375 121.382812 100.25 C 87.652344 120.164062 98.21875 154.300781 98.21875 154.300781 C 98.21875 154.707031 107.566406 183.5625 150.238281 223.390625 C 192.910156 263.621094 223.796875 274.1875 223.796875 274.1875 C 223.796875 274.1875 258.746094 285.566406 275.40625 253.460938 C 281.503906 241.269531 267.6875 231.921875 267.6875 231.921875 C 259.152344 225.015625 250.617188 218.511719 242.082031 212.007812 C 242.082031 212.007812 226.640625 209.570312 216.074219 221.355469 C 216.074219 221.761719 203.070312 225.421875 174.621094 197.785156 Z M 174.621094 197.785156 " fill-opacity="1" fill-rule="nonzero"/></svg>