<svg xmlns="http://www.w3.org/2000/svg" xmlns:xlink="http://www.w3.org/1999/xlink" width="500" zoomAndPan="magnify" viewBox="0 0 375 374.999991" height="500" preserveAspectRatio="xMidYMid meet" version="1.0"><defs><clipPath id="92c286c4e7"><path d="M 62.566406 109.417969 L 274 109.417969 L 274 265.417969 L 62.566406 265.417969 Z M 62.566406 109.417969 " clip-rule="nonzero"/></clipPath><clipPath id="0588aeebe2"><path d="M 230 148 L 312.316406 148 L 312.316406 230 L 230 230 Z M 230 148 " clip-rule="nonzero"/></clipPath><clipPath id="257fa3ae73"><path d="M 12.632812 7.207031 L 362.734375 7.207031 L 362.734375 367 L 12.632812 367 Z M 12.632812 7.207031 " clip-rule="nonzero"/></clipPath><clipPath id="2dfb7ba0b5"><path d="M 187.5 7.207031 C 90.921875 7.207031 12.632812 87.925781 12.632812 187.5 C 12.632812 287.074219 90.921875 367.792969 187.5 367.792969 C 284.078125 367.792969 362.367188 287.074219 362.367188 187.5 C 362.367188 87.925781 284.078125 7.207031 187.5 7.207031 " clip-rule="nonzero"/></clipPath><clipPath id="27a885a2ce"><path d="M 52.6875 103.242188 L 280 103.242188 L 280 271.992188 L 52.6875 271.992188 Z M 52.6875 103.242188 " clip-rule="nonzero"/></clipPath><clipPath id="eb6ba97646"><path d="M 234 145 L 321.9375 145 L 321.9375 234 L 234 234 Z M 234 145 " clip-rule="nonzero"/></clipPath></defs><path fill="#ffffff" d="M 152.320312 226.414062 C 150.175781 226.414062 148.417969 228.171875 148.417969 230.316406 C 148.417969 232.460938 150.175781 234.214844 152.320312 234.214844 L 183.539062 234.214844 C 185.6875 234.214844 187.441406 232.460938 187.441406 230.316406 C 187.441406 228.171875 185.6875 226.414062 183.539062 226.414062 Z M 152.320312 226.414062 " fill-opacity="1" fill-rule="nonzero"/><path fill="#ffffff" d="M 97.882812 229.144531 C 97.882812 229.585938 97.796875 230.007812 97.628906 230.414062 C 97.460938 230.820312 97.222656 231.179688 96.910156 231.488281 C 96.601562 231.800781 96.242188 232.039062 95.835938 232.207031 C 95.429688 232.375 95.003906 232.460938 94.566406 232.460938 C 94.125 232.460938 93.703125 232.375 93.296875 232.207031 C 92.890625 232.039062 92.53125 231.800781 92.21875 231.488281 C 91.910156 231.179688 91.667969 230.820312 91.5 230.414062 C 91.332031 230.007812 91.25 229.585938 91.25 229.144531 C 91.25 228.707031 91.332031 228.28125 91.5 227.875 C 91.667969 227.472656 91.910156 227.113281 92.21875 226.800781 C 92.53125 226.492188 92.890625 226.25 93.296875 226.082031 C 93.703125 225.914062 94.125 225.832031 94.566406 225.832031 C 95.003906 225.832031 95.429688 225.914062 95.835938 226.082031 C 96.242188 226.25 96.601562 226.492188 96.910156 226.800781 C 97.222656 227.113281 97.460938 227.472656 97.628906 227.875 C 97.796875 228.28125 97.882812 228.707031 97.882812 229.144531 Z M 97.882812 229.144531 " fill-opacity="1" fill-rule="nonzero"/><path fill="#ffffff" d="M 84.808594 229.144531 C 84.808594 229.585938 84.726562 230.007812 84.558594 230.414062 C 84.390625 230.820312 84.148438 231.179688 83.839844 231.488281 C 83.527344 231.800781 83.167969 232.039062 82.761719 232.207031 C 82.355469 232.375 81.933594 232.460938 81.492188 232.460938 C 81.054688 232.460938 80.628906 232.375 80.222656 232.207031 C 79.816406 232.039062 79.457031 231.800781 79.148438 231.488281 C 78.835938 231.179688 78.597656 230.820312 78.429688 230.414062 C 78.261719 230.007812 78.175781 229.585938 78.175781 229.144531 C 78.175781 228.707031 78.261719 228.28125 78.429688 227.875 C 78.597656 227.472656 78.835938 227.113281 79.148438 226.800781 C 79.457031 226.492188 79.816406 226.25 80.222656 226.082031 C 80.628906 225.914062 81.054688 225.832031 81.492188 225.832031 C 81.933594 225.832031 82.355469 225.914062 82.761719 226.082031 C 83.167969 226.25 83.527344 226.492188 83.839844 226.800781 C 84.148438 227.113281 84.390625 227.472656 84.558594 227.875 C 84.726562 228.28125 84.808594 228.707031 84.808594 229.144531 Z M 84.808594 229.144531 " fill-opacity="1" fill-rule="nonzero"/><path fill="#ffffff" d="M 149.785156 140.421875 C 148.613281 138.667969 146.078125 138.082031 144.320312 139.253906 L 109.199219 162.652344 C 108.027344 163.433594 107.445312 164.601562 107.445312 165.96875 C 107.445312 167.332031 108.027344 168.503906 109.199219 169.28125 C 109.199219 169.28125 144.320312 192.679688 144.320312 192.679688 C 146.078125 193.851562 148.613281 193.460938 149.785156 191.511719 C 150.953125 189.757812 150.566406 187.222656 148.613281 186.050781 L 118.371094 165.96875 L 148.613281 145.882812 C 150.371094 144.710938 150.953125 142.179688 149.785156 140.421875 Z M 149.785156 140.421875 " fill-opacity="1" fill-rule="nonzero"/><path fill="#ffffff" d="M 186.074219 191.511719 C 187.246094 193.265625 189.78125 193.851562 191.539062 192.679688 L 226.660156 169.28125 C 227.832031 168.503906 228.417969 167.332031 228.417969 165.96875 C 228.417969 164.601562 227.832031 163.433594 226.660156 162.652344 L 191.539062 139.253906 C 189.78125 138.082031 187.246094 138.472656 186.074219 140.421875 C 184.90625 142.179688 185.296875 144.710938 187.246094 145.882812 L 217.488281 165.96875 L 187.246094 186.050781 C 185.492188 187.222656 184.90625 189.757812 186.074219 191.511719 Z M 186.074219 191.511719 " fill-opacity="1" fill-rule="nonzero"/><path fill="#ffffff" d="M 172.027344 135.742188 L 156.417969 194.242188 C 155.832031 196.386719 157.199219 198.53125 159.148438 198.921875 C 159.539062 198.921875 159.734375 199.117188 160.125 199.117188 C 161.882812 199.117188 163.441406 197.945312 163.832031 196.191406 L 179.441406 137.691406 C 180.027344 135.546875 178.660156 133.402344 176.710938 133.011719 C 174.757812 132.429688 172.613281 133.597656 172.027344 135.742188 Z M 172.027344 135.742188 " fill-opacity="1" fill-rule="nonzero"/><g clip-path="url(#92c286c4e7)"><path fill="#ffffff" d="M 152.320312 257.613281 L 140.613281 257.613281 C 138.46875 257.613281 136.710938 259.371094 136.710938 261.515625 C 136.710938 263.660156 138.46875 265.414062 140.613281 265.414062 L 195.246094 265.414062 C 197.394531 265.414062 199.148438 263.660156 199.148438 261.515625 C 199.148438 259.371094 197.394531 257.613281 195.246094 257.613281 L 183.539062 257.613281 L 183.539062 245.914062 L 261.585938 245.914062 C 266.660156 245.914062 270.953125 242.601562 272.511719 238.113281 L 268.414062 238.113281 C 266.660156 238.113281 265.097656 237.921875 263.539062 237.335938 C 262.953125 237.726562 262.171875 238.113281 261.390625 238.113281 L 74.273438 238.113281 C 72.128906 238.113281 70.371094 236.359375 70.371094 234.214844 L 70.371094 222.515625 L 235.441406 222.515625 L 234.855469 221.929688 C 232.902344 219.980469 231.34375 217.445312 230.5625 214.714844 L 70.371094 214.714844 L 70.371094 121.117188 C 70.371094 118.972656 72.128906 117.21875 74.273438 117.21875 L 261.585938 117.21875 C 263.734375 117.21875 265.488281 118.972656 265.488281 121.117188 L 265.488281 141.007812 C 266.464844 140.8125 267.441406 140.617188 268.609375 140.617188 L 273.292969 140.617188 L 273.292969 121.117188 C 273.292969 114.683594 268.023438 109.417969 261.585938 109.417969 L 74.273438 109.417969 C 67.835938 109.417969 62.566406 114.683594 62.566406 121.117188 L 62.566406 234.214844 C 62.566406 240.648438 67.835938 245.914062 74.273438 245.914062 L 152.320312 245.914062 Z M 160.125 245.914062 L 175.734375 245.914062 L 175.734375 257.613281 L 160.125 257.613281 Z M 160.125 245.914062 " fill-opacity="1" fill-rule="nonzero"/></g><g clip-path="url(#0588aeebe2)"><path fill="#ffffff" d="M 304.707031 177.082031 C 304.316406 176.105469 303.925781 175.328125 303.535156 174.351562 C 306.074219 170.648438 305.683594 165.578125 302.367188 162.261719 L 298.464844 158.363281 C 296.707031 156.609375 294.171875 155.632812 291.632812 155.632812 C 289.683594 155.632812 287.925781 156.21875 286.367188 157.191406 C 285.585938 156.800781 284.609375 156.414062 283.632812 156.023438 C 282.660156 151.539062 278.757812 148.417969 274.269531 148.417969 L 268.804688 148.417969 C 264.121094 148.417969 260.21875 151.734375 259.441406 156.023438 C 258.464844 156.414062 257.683594 156.800781 256.707031 157.191406 C 255.148438 156.21875 253.390625 155.632812 251.441406 155.632812 C 248.902344 155.632812 246.367188 156.609375 244.609375 158.363281 L 240.707031 162.261719 C 237.390625 165.578125 237 170.648438 239.539062 174.351562 C 239.148438 175.132812 238.757812 176.105469 238.367188 177.082031 C 233.878906 178.058594 230.757812 181.957031 230.757812 186.441406 L 230.757812 191.902344 C 230.757812 196.582031 234.074219 200.480469 238.367188 201.261719 C 238.757812 202.234375 239.148438 203.015625 239.539062 203.992188 C 238.5625 205.550781 237.976562 207.304688 237.976562 209.257812 C 237.976562 211.789062 238.953125 214.324219 240.707031 216.082031 L 244.609375 219.980469 C 246.367188 221.734375 248.902344 222.710938 251.441406 222.710938 C 253.390625 222.710938 255.148438 222.125 256.707031 221.152344 C 257.488281 221.539062 258.464844 221.929688 259.441406 222.320312 C 260.414062 226.804688 264.316406 229.925781 268.804688 229.925781 L 274.269531 229.925781 C 278.953125 229.925781 282.855469 226.609375 283.632812 222.320312 C 284.609375 221.929688 285.390625 221.539062 286.367188 221.152344 C 287.925781 222.125 289.683594 222.710938 291.632812 222.710938 C 294.171875 222.710938 296.707031 221.734375 298.464844 219.980469 L 302.367188 216.082031 C 304.121094 214.324219 305.097656 211.789062 305.097656 209.257812 C 305.097656 207.304688 304.511719 205.550781 303.535156 203.992188 C 303.925781 203.210938 304.316406 202.234375 304.707031 201.261719 C 309.195312 200.285156 312.316406 196.386719 312.316406 191.902344 L 312.316406 186.441406 C 312.316406 181.957031 309 178.058594 304.707031 177.082031 Z M 304.511719 192.097656 C 304.511719 193.070312 303.730469 193.851562 302.757812 193.851562 L 298.660156 193.851562 C 297.878906 198.140625 296.316406 201.847656 293.976562 205.160156 L 296.902344 208.085938 C 297.683594 208.867188 297.683594 210.035156 296.902344 210.621094 L 293 214.519531 C 292.609375 214.910156 292.21875 215.105469 291.632812 215.105469 C 291.050781 215.105469 290.660156 214.910156 290.269531 214.519531 L 287.339844 211.597656 C 284.023438 213.9375 280.121094 215.691406 276.023438 216.277344 L 276.023438 220.371094 C 276.023438 221.34375 275.246094 222.125 274.269531 222.125 L 268.804688 222.125 C 267.828125 222.125 267.050781 221.34375 267.050781 220.371094 L 267.050781 216.664062 C 262.757812 215.886719 259.050781 214.324219 255.734375 211.984375 L 252.414062 214.714844 C 252.027344 215.105469 251.636719 215.300781 251.050781 215.300781 C 250.464844 215.300781 250.269531 215.105469 249.878906 214.714844 L 245.976562 210.816406 C 245.195312 210.035156 245.195312 208.867188 245.976562 208.28125 L 248.902344 205.355469 C 246.5625 202.042969 244.804688 198.140625 244.222656 194.046875 L 240.125 194.046875 C 239.148438 194.046875 238.367188 193.265625 238.367188 192.292969 L 238.367188 186.832031 C 238.367188 185.855469 239.148438 185.078125 240.125 185.078125 L 244.027344 185.078125 C 244.804688 180.785156 246.367188 177.082031 248.707031 173.765625 L 245.976562 170.453125 C 245.195312 169.671875 245.195312 168.503906 245.976562 167.917969 L 249.878906 164.015625 C 250.269531 163.628906 250.660156 163.433594 251.246094 163.433594 C 251.832031 163.433594 252.21875 163.628906 252.609375 164.015625 L 255.539062 166.941406 C 258.855469 164.601562 262.757812 162.847656 266.855469 162.261719 L 266.855469 158.167969 C 266.855469 157.191406 267.636719 156.414062 268.609375 156.414062 L 274.074219 156.414062 C 275.050781 156.414062 275.828125 157.191406 275.828125 158.167969 L 275.828125 162.066406 C 280.121094 162.847656 283.828125 164.40625 287.148438 166.746094 L 290.074219 163.824219 C 290.464844 163.433594 290.855469 163.238281 291.4375 163.238281 C 292.023438 163.238281 292.414062 163.433594 292.804688 163.824219 L 296.707031 167.722656 C 297.488281 168.503906 297.488281 169.671875 296.707031 170.257812 L 293.78125 173.183594 C 296.121094 176.496094 297.878906 180.398438 298.464844 184.492188 L 302.5625 184.492188 C 303.535156 184.492188 304.316406 185.273438 304.316406 186.246094 L 304.316406 192.097656 Z M 304.511719 192.097656 " fill-opacity="1" fill-rule="nonzero"/></g><path fill="#ffffff" d="M 271.34375 173.765625 C 262.757812 173.765625 255.734375 180.785156 255.734375 189.367188 C 255.734375 197.945312 262.757812 204.964844 271.34375 204.964844 C 279.925781 204.964844 286.953125 197.945312 286.953125 189.367188 C 286.953125 180.785156 279.925781 173.765625 271.34375 173.765625 Z M 271.34375 197.167969 C 267.050781 197.167969 263.539062 193.65625 263.539062 189.367188 C 263.539062 185.078125 267.050781 181.566406 271.34375 181.566406 C 275.632812 181.566406 279.148438 185.078125 279.148438 189.367188 C 279.148438 193.65625 275.632812 197.167969 271.34375 197.167969 Z M 271.34375 197.167969 " fill-opacity="1" fill-rule="nonzero"/><g clip-path="url(#257fa3ae73)"><g clip-path="url(#2dfb7ba0b5)"><path fill="#20c997" d="M 12.632812 7.207031 L 362.734375 7.207031 L 362.734375 366.898438 L 12.632812 366.898438 Z M 12.632812 7.207031 " fill-opacity="1" fill-rule="nonzero"/></g></g><path fill="#ffffff" d="M 149.449219 229.804688 C 147.136719 229.804688 145.242188 231.703125 145.242188 234.023438 C 145.242188 236.34375 147.136719 238.242188 149.449219 238.242188 L 183.105469 238.242188 C 185.421875 238.242188 187.3125 236.34375 187.3125 234.023438 C 187.3125 231.703125 185.421875 229.804688 183.105469 229.804688 Z M 149.449219 229.804688 " fill-opacity="1" fill-rule="nonzero"/><path fill="#ffffff" d="M 90.765625 232.757812 C 90.765625 233.234375 90.671875 233.691406 90.492188 234.128906 C 90.3125 234.570312 90.050781 234.957031 89.71875 235.292969 C 89.382812 235.628906 88.996094 235.890625 88.558594 236.070312 C 88.117188 236.253906 87.664062 236.34375 87.1875 236.34375 C 86.714844 236.34375 86.257812 236.253906 85.820312 236.070312 C 85.382812 235.890625 84.996094 235.628906 84.660156 235.292969 C 84.324219 234.957031 84.066406 234.570312 83.882812 234.128906 C 83.703125 233.691406 83.613281 233.234375 83.613281 232.757812 C 83.613281 232.28125 83.703125 231.824219 83.882812 231.386719 C 84.066406 230.945312 84.324219 230.558594 84.660156 230.222656 C 84.996094 229.886719 85.382812 229.628906 85.820312 229.445312 C 86.257812 229.261719 86.714844 229.171875 87.1875 229.171875 C 87.664062 229.171875 88.117188 229.261719 88.558594 229.445312 C 88.996094 229.628906 89.382812 229.886719 89.71875 230.222656 C 90.050781 230.558594 90.3125 230.945312 90.492188 231.386719 C 90.671875 231.824219 90.765625 232.28125 90.765625 232.757812 Z M 90.765625 232.757812 " fill-opacity="1" fill-rule="nonzero"/><path fill="#ffffff" d="M 76.671875 232.757812 C 76.671875 233.234375 76.582031 233.691406 76.398438 234.128906 C 76.21875 234.570312 75.960938 234.957031 75.625 235.292969 C 75.289062 235.628906 74.902344 235.890625 74.464844 236.070312 C 74.027344 236.253906 73.570312 236.34375 73.09375 236.34375 C 72.621094 236.34375 72.164062 236.253906 71.726562 236.070312 C 71.289062 235.890625 70.902344 235.628906 70.566406 235.292969 C 70.230469 234.957031 69.972656 234.570312 69.792969 234.128906 C 69.609375 233.691406 69.519531 233.234375 69.519531 232.757812 C 69.519531 232.28125 69.609375 231.824219 69.792969 231.386719 C 69.972656 230.945312 70.230469 230.558594 70.566406 230.222656 C 70.902344 229.886719 71.289062 229.628906 71.726562 229.445312 C 72.164062 229.261719 72.621094 229.171875 73.09375 229.171875 C 73.570312 229.171875 74.027344 229.261719 74.464844 229.445312 C 74.902344 229.628906 75.289062 229.886719 75.625 230.222656 C 75.960938 230.558594 76.21875 230.945312 76.398438 231.386719 C 76.582031 231.824219 76.671875 232.28125 76.671875 232.757812 Z M 76.671875 232.757812 " fill-opacity="1" fill-rule="nonzero"/><path fill="#ffffff" d="M 146.714844 136.78125 C 145.453125 134.882812 142.71875 134.25 140.828125 135.515625 L 102.964844 160.828125 C 101.703125 161.671875 101.070312 162.9375 101.070312 164.414062 C 101.070312 165.890625 101.703125 167.15625 102.964844 168 C 102.964844 168 140.828125 193.3125 140.828125 193.3125 C 142.71875 194.578125 145.453125 194.15625 146.714844 192.046875 C 147.976562 190.148438 147.558594 187.40625 145.453125 186.140625 L 112.851562 164.414062 L 145.453125 142.6875 C 147.347656 141.421875 147.976562 138.679688 146.714844 136.78125 Z M 146.714844 136.78125 " fill-opacity="1" fill-rule="nonzero"/><path fill="#ffffff" d="M 185.839844 192.046875 C 187.101562 193.945312 189.835938 194.578125 191.730469 193.3125 L 229.59375 168 C 230.855469 167.15625 231.484375 165.890625 231.484375 164.414062 C 231.484375 162.9375 230.855469 161.671875 229.59375 160.828125 L 191.730469 135.515625 C 189.835938 134.25 187.101562 134.671875 185.839844 136.78125 C 184.578125 138.679688 185 141.421875 187.101562 142.6875 L 219.707031 164.414062 L 187.101562 186.140625 C 185.210938 187.40625 184.578125 190.148438 185.839844 192.046875 Z M 185.839844 192.046875 " fill-opacity="1" fill-rule="nonzero"/><path fill="#ffffff" d="M 170.695312 131.71875 L 153.867188 195 C 153.238281 197.320312 154.710938 199.640625 156.8125 200.0625 C 157.234375 200.0625 157.445312 200.273438 157.863281 200.273438 C 159.757812 200.273438 161.441406 199.007812 161.859375 197.109375 L 178.6875 133.828125 C 179.320312 131.507812 177.847656 129.1875 175.742188 128.765625 C 173.640625 128.132812 171.328125 129.398438 170.695312 131.71875 Z M 170.695312 131.71875 " fill-opacity="1" fill-rule="nonzero"/><g clip-path="url(#27a885a2ce)"><path fill="#ffffff" d="M 149.449219 263.554688 L 136.828125 263.554688 C 134.515625 263.554688 132.625 265.453125 132.625 267.773438 C 132.625 270.09375 134.515625 271.992188 136.828125 271.992188 L 195.726562 271.992188 C 198.039062 271.992188 199.933594 270.09375 199.933594 267.773438 C 199.933594 265.453125 198.039062 263.554688 195.726562 263.554688 L 183.105469 263.554688 L 183.105469 250.898438 L 267.246094 250.898438 C 272.714844 250.898438 277.339844 247.3125 279.023438 242.460938 L 274.605469 242.460938 C 272.714844 242.460938 271.03125 242.25 269.347656 241.617188 C 268.71875 242.039062 267.875 242.460938 267.035156 242.460938 L 65.3125 242.460938 C 63 242.460938 61.105469 240.5625 61.105469 238.242188 L 61.105469 225.585938 L 239.058594 225.585938 L 238.425781 224.953125 C 236.324219 222.84375 234.640625 220.101562 233.800781 217.148438 L 61.105469 217.148438 L 61.105469 115.898438 C 61.105469 113.578125 63 111.679688 65.3125 111.679688 L 267.246094 111.679688 C 269.558594 111.679688 271.453125 113.578125 271.453125 115.898438 L 271.453125 137.414062 C 272.503906 137.203125 273.554688 136.992188 274.816406 136.992188 L 279.867188 136.992188 L 279.867188 115.898438 C 279.867188 108.9375 274.1875 103.242188 267.246094 103.242188 L 65.3125 103.242188 C 58.371094 103.242188 52.691406 108.9375 52.691406 115.898438 L 52.691406 238.242188 C 52.691406 245.203125 58.371094 250.898438 65.3125 250.898438 L 149.449219 250.898438 Z M 157.863281 250.898438 L 174.691406 250.898438 L 174.691406 263.554688 L 157.863281 263.554688 Z M 157.863281 250.898438 " fill-opacity="1" fill-rule="nonzero"/></g><g clip-path="url(#eb6ba97646)"><path fill="#ffffff" d="M 313.730469 176.4375 C 313.308594 175.382812 312.890625 174.539062 312.46875 173.484375 C 315.203125 169.476562 314.78125 163.992188 311.207031 160.40625 L 307 156.1875 C 305.105469 154.289062 302.371094 153.234375 299.636719 153.234375 C 297.535156 153.234375 295.640625 153.867188 293.957031 154.921875 C 293.117188 154.5 292.066406 154.078125 291.015625 153.65625 C 289.960938 148.804688 285.753906 145.429688 280.917969 145.429688 L 275.027344 145.429688 C 269.980469 145.429688 265.773438 149.015625 264.929688 153.65625 C 263.878906 154.078125 263.039062 154.5 261.984375 154.921875 C 260.304688 153.867188 258.410156 153.234375 256.304688 153.234375 C 253.570312 153.234375 250.835938 154.289062 248.945312 156.1875 L 244.738281 160.40625 C 241.160156 163.992188 240.742188 169.476562 243.476562 173.484375 C 243.054688 174.328125 242.632812 175.382812 242.214844 176.4375 C 237.375 177.492188 234.011719 181.710938 234.011719 186.5625 L 234.011719 192.46875 C 234.011719 197.53125 237.585938 201.75 242.214844 202.59375 C 242.632812 203.648438 243.054688 204.492188 243.476562 205.546875 C 242.421875 207.234375 241.792969 209.132812 241.792969 211.242188 C 241.792969 213.984375 242.84375 216.726562 244.738281 218.625 L 248.945312 222.84375 C 250.835938 224.742188 253.570312 225.796875 256.304688 225.796875 C 258.410156 225.796875 260.304688 225.164062 261.984375 224.109375 C 262.828125 224.53125 263.878906 224.953125 264.929688 225.375 C 265.984375 230.226562 270.1875 233.601562 275.027344 233.601562 L 280.917969 233.601562 C 285.964844 233.601562 290.171875 230.015625 291.015625 225.375 C 292.066406 224.953125 292.90625 224.53125 293.957031 224.109375 C 295.640625 225.164062 297.535156 225.796875 299.636719 225.796875 C 302.371094 225.796875 305.105469 224.742188 307 222.84375 L 311.207031 218.625 C 313.101562 216.726562 314.152344 213.984375 314.152344 211.242188 C 314.152344 209.132812 313.519531 207.234375 312.46875 205.546875 C 312.890625 204.703125 313.308594 203.648438 313.730469 202.59375 C 318.570312 201.539062 321.933594 197.320312 321.933594 192.46875 L 321.933594 186.5625 C 321.933594 181.710938 318.359375 177.492188 313.730469 176.4375 Z M 313.519531 192.679688 C 313.519531 193.734375 312.679688 194.578125 311.628906 194.578125 L 307.210938 194.578125 C 306.367188 199.21875 304.6875 203.226562 302.160156 206.8125 L 305.316406 209.976562 C 306.160156 210.820312 306.160156 212.085938 305.316406 212.71875 L 301.109375 216.9375 C 300.691406 217.359375 300.269531 217.570312 299.636719 217.570312 C 299.007812 217.570312 298.585938 217.359375 298.164062 216.9375 L 295.011719 213.773438 C 291.433594 216.304688 287.226562 218.203125 282.808594 218.835938 L 282.808594 223.265625 C 282.808594 224.320312 281.96875 225.164062 280.917969 225.164062 L 275.027344 225.164062 C 273.976562 225.164062 273.132812 224.320312 273.132812 223.265625 L 273.132812 219.257812 C 268.507812 218.414062 264.511719 216.726562 260.933594 214.195312 L 257.359375 217.148438 C 256.9375 217.570312 256.515625 217.78125 255.886719 217.78125 C 255.253906 217.78125 255.042969 217.570312 254.625 217.148438 L 250.417969 212.929688 C 249.574219 212.085938 249.574219 210.820312 250.417969 210.1875 L 253.570312 207.023438 C 251.046875 203.4375 249.15625 199.21875 248.523438 194.789062 L 244.105469 194.789062 C 243.054688 194.789062 242.214844 193.945312 242.214844 192.890625 L 242.214844 186.984375 C 242.214844 185.929688 243.054688 185.085938 244.105469 185.085938 L 248.3125 185.085938 C 249.15625 180.445312 250.835938 176.4375 253.363281 172.851562 L 250.417969 169.265625 C 249.574219 168.421875 249.574219 167.15625 250.417969 166.523438 L 254.625 162.304688 C 255.042969 161.882812 255.464844 161.671875 256.097656 161.671875 C 256.726562 161.671875 257.148438 161.882812 257.570312 162.304688 L 260.722656 165.46875 C 264.300781 162.9375 268.507812 161.039062 272.925781 160.40625 L 272.925781 155.976562 C 272.925781 154.921875 273.765625 154.078125 274.816406 154.078125 L 280.707031 154.078125 C 281.757812 154.078125 282.601562 154.921875 282.601562 155.976562 L 282.601562 160.195312 C 287.226562 161.039062 291.222656 162.726562 294.800781 165.257812 L 297.957031 162.09375 C 298.375 161.671875 298.796875 161.460938 299.425781 161.460938 C 300.058594 161.460938 300.480469 161.671875 300.898438 162.09375 L 305.105469 166.3125 C 305.949219 167.15625 305.949219 168.421875 305.105469 169.054688 L 301.953125 172.21875 C 304.476562 175.804688 306.367188 180.023438 307 184.453125 L 311.417969 184.453125 C 312.46875 184.453125 313.308594 185.296875 313.308594 186.351562 L 313.308594 192.679688 Z M 313.519531 192.679688 " fill-opacity="1" fill-rule="nonzero"/></g><path fill="#ffffff" d="M 277.761719 172.851562 C 268.507812 172.851562 260.933594 180.445312 260.933594 189.726562 C 260.933594 199.007812 268.507812 206.601562 277.761719 206.601562 C 287.015625 206.601562 294.589844 199.007812 294.589844 189.726562 C 294.589844 180.445312 287.015625 172.851562 277.761719 172.851562 Z M 277.761719 198.164062 C 273.132812 198.164062 269.347656 194.367188 269.347656 189.726562 C 269.347656 185.085938 273.132812 181.289062 277.761719 181.289062 C 282.390625 181.289062 286.175781 185.085938 286.175781 189.726562 C 286.175781 194.367188 282.390625 198.164062 277.761719 198.164062 Z M 277.761719 198.164062 " fill-opacity="1" fill-rule="nonzero"/></svg>