<svg xmlns="http://www.w3.org/2000/svg" xmlns:xlink="http://www.w3.org/1999/xlink" width="500" zoomAndPan="magnify" viewBox="0 0 375 374.999991" height="500" preserveAspectRatio="xMidYMid meet" version="1.0"><defs><clipPath id="2f722316cc"><path d="M 12.726562 12.726562 L 362.226562 12.726562 L 362.226562 362.226562 L 12.726562 362.226562 Z M 12.726562 12.726562 " clip-rule="nonzero"/></clipPath></defs><g clip-path="url(#2f722316cc)"><path fill="#20c997" d="M 187.476562 362.226562 C 283.988281 362.226562 362.226562 283.988281 362.226562 187.476562 C 362.226562 90.964844 283.988281 12.726562 187.476562 12.726562 C 90.964844 12.726562 12.726562 90.964844 12.726562 187.476562 C 12.726562 283.988281 90.964844 362.226562 187.476562 362.226562 Z M 98.140625 98.140625 C 101.703125 94.582031 106.527344 92.582031 111.5625 92.582031 L 263.386719 92.582031 C 268.421875 92.582031 273.246094 94.582031 276.808594 98.140625 C 280.367188 101.703125 282.367188 106.527344 282.367188 111.5625 L 282.367188 225.429688 C 282.367188 230.464844 280.367188 235.292969 276.808594 238.851562 C 273.246094 242.410156 268.421875 244.410156 263.386719 244.410156 L 215.941406 244.410156 C 210.703125 244.410156 206.453125 248.65625 206.453125 253.898438 C 206.453125 259.140625 210.703125 263.386719 215.941406 263.386719 L 225.429688 263.386719 C 230.671875 263.386719 234.921875 267.636719 234.921875 272.875 C 234.921875 278.117188 230.671875 282.367188 225.429688 282.367188 L 149.519531 282.367188 C 144.277344 282.367188 140.03125 278.117188 140.03125 272.875 C 140.03125 267.636719 144.277344 263.386719 149.519531 263.386719 L 159.007812 263.386719 C 164.25 263.386719 168.496094 259.140625 168.496094 253.898438 C 168.496094 248.65625 164.25 244.410156 159.007812 244.410156 L 111.5625 244.410156 C 106.527344 244.410156 101.703125 242.410156 98.140625 238.851562 C 94.582031 235.292969 92.582031 230.464844 92.582031 225.429688 L 92.582031 111.5625 C 92.582031 106.527344 94.582031 101.703125 98.140625 98.140625 Z M 252.113281 225.429688 C 258.339844 225.429688 263.386719 220.382812 263.386719 214.15625 L 263.386719 122.835938 C 263.386719 116.609375 258.339844 111.5625 252.113281 111.5625 L 122.835938 111.5625 C 116.609375 111.5625 111.5625 116.609375 111.5625 122.835938 L 111.5625 214.15625 C 111.5625 220.382812 116.609375 225.429688 122.835938 225.429688 Z M 252.113281 225.429688 " fill-opacity="1" fill-rule="evenodd"/></g></svg>