<svg xmlns="http://www.w3.org/2000/svg" xmlns:xlink="http://www.w3.org/1999/xlink" width="500" zoomAndPan="magnify" viewBox="0 0 375 374.999991" height="500" preserveAspectRatio="xMidYMid meet" version="1.0"><defs><g/></defs><g fill="#ffffff" fill-opacity="1"><g transform="translate(62.5728, 201.003181)"><g><path d="M 9.3125 -5.28125 L 18.28125 -5.28125 L 18.28125 0 L 2.484375 0 L 2.484375 -28.078125 L 9.3125 -28.078125 Z M 9.3125 -5.28125 "/></g></g></g><g fill="#ffffff" fill-opacity="1"><g transform="translate(81.650901, 201.003181)"><g><path d="M 15.765625 0.28125 C 13.117188 0.28125 10.695312 -0.332031 8.5 -1.5625 C 6.300781 -2.789062 4.550781 -4.503906 3.25 -6.703125 C 1.957031 -8.898438 1.3125 -11.375 1.3125 -14.125 C 1.3125 -16.863281 1.957031 -19.328125 3.25 -21.515625 C 4.550781 -23.703125 6.300781 -25.410156 8.5 -26.640625 C 10.695312 -27.867188 13.117188 -28.484375 15.765625 -28.484375 C 18.398438 -28.484375 20.816406 -27.867188 23.015625 -26.640625 C 25.210938 -25.410156 26.945312 -23.703125 28.21875 -21.515625 C 29.488281 -19.328125 30.125 -16.863281 30.125 -14.125 C 30.125 -11.375 29.484375 -8.898438 28.203125 -6.703125 C 26.921875 -4.503906 25.1875 -2.789062 23 -1.5625 C 20.8125 -0.332031 18.398438 0.28125 15.765625 0.28125 Z M 15.765625 -5.953125 C 18.003906 -5.953125 19.796875 -6.695312 21.140625 -8.1875 C 22.484375 -9.6875 23.15625 -11.664062 23.15625 -14.125 C 23.15625 -16.601562 22.484375 -18.582031 21.140625 -20.0625 C 19.796875 -21.539062 18.003906 -22.28125 15.765625 -22.28125 C 13.492188 -22.28125 11.679688 -21.546875 10.328125 -20.078125 C 8.984375 -18.609375 8.3125 -16.625 8.3125 -14.125 C 8.3125 -11.644531 8.984375 -9.660156 10.328125 -8.171875 C 11.679688 -6.691406 13.492188 -5.953125 15.765625 -5.953125 Z M 15.765625 -5.953125 "/></g></g></g><g fill="#ffffff" fill-opacity="1"><g transform="translate(113.087774, 201.003181)"><g><path d="M 19.484375 -14.40625 C 21.109375 -14.050781 22.410156 -13.238281 23.390625 -11.96875 C 24.378906 -10.707031 24.875 -9.265625 24.875 -7.640625 C 24.875 -5.296875 24.050781 -3.4375 22.40625 -2.0625 C 20.769531 -0.6875 18.488281 0 15.5625 0 L 2.484375 0 L 2.484375 -28.078125 L 15.125 -28.078125 C 17.976562 -28.078125 20.207031 -27.421875 21.8125 -26.109375 C 23.425781 -24.804688 24.234375 -23.035156 24.234375 -20.796875 C 24.234375 -19.140625 23.800781 -17.765625 22.9375 -16.671875 C 22.070312 -15.585938 20.921875 -14.832031 19.484375 -14.40625 Z M 9.3125 -16.71875 L 13.796875 -16.71875 C 14.921875 -16.71875 15.78125 -16.960938 16.375 -17.453125 C 16.976562 -17.953125 17.28125 -18.679688 17.28125 -19.640625 C 17.28125 -20.597656 16.976562 -21.328125 16.375 -21.828125 C 15.78125 -22.335938 14.921875 -22.59375 13.796875 -22.59375 L 9.3125 -22.59375 Z M 14.359375 -5.515625 C 15.503906 -5.515625 16.390625 -5.773438 17.015625 -6.296875 C 17.640625 -6.816406 17.953125 -7.570312 17.953125 -8.5625 C 17.953125 -9.550781 17.625 -10.320312 16.96875 -10.875 C 16.320312 -11.4375 15.425781 -11.71875 14.28125 -11.71875 L 9.3125 -11.71875 L 9.3125 -5.515625 Z M 14.359375 -5.515625 "/></g></g></g><g fill="#ffffff" fill-opacity="1"><g transform="translate(139.445152, 201.003181)"><g><path d="M 9.3125 -22.59375 L 9.3125 -16.921875 L 18.484375 -16.921875 L 18.484375 -11.640625 L 9.3125 -11.640625 L 9.3125 -5.484375 L 19.6875 -5.484375 L 19.6875 0 L 2.484375 0 L 2.484375 -28.078125 L 19.6875 -28.078125 L 19.6875 -22.59375 Z M 9.3125 -22.59375 "/></g></g></g><g fill="#ffffff" fill-opacity="1"><g transform="translate(161.082998, 201.003181)"><g><path d="M 16.796875 0 L 10.953125 -10.59375 L 9.3125 -10.59375 L 9.3125 0 L 2.484375 0 L 2.484375 -28.078125 L 13.953125 -28.078125 C 16.171875 -28.078125 18.054688 -27.691406 19.609375 -26.921875 C 21.171875 -26.148438 22.335938 -25.085938 23.109375 -23.734375 C 23.890625 -22.390625 24.28125 -20.890625 24.28125 -19.234375 C 24.28125 -17.367188 23.753906 -15.703125 22.703125 -14.234375 C 21.648438 -12.773438 20.097656 -11.738281 18.046875 -11.125 L 24.515625 0 Z M 9.3125 -15.4375 L 13.5625 -15.4375 C 14.8125 -15.4375 15.75 -15.742188 16.375 -16.359375 C 17 -16.972656 17.3125 -17.835938 17.3125 -18.953125 C 17.3125 -20.023438 17 -20.867188 16.375 -21.484375 C 15.75 -22.097656 14.8125 -22.40625 13.5625 -22.40625 L 9.3125 -22.40625 Z M 9.3125 -15.4375 "/></g></g></g><g fill="#ffffff" fill-opacity="1"><g transform="translate(187.160408, 201.003181)"><g><path d="M 22.6875 -28.078125 L 22.6875 -22.59375 L 15.234375 -22.59375 L 15.234375 0 L 8.40625 0 L 8.40625 -22.59375 L 0.953125 -22.59375 L 0.953125 -28.078125 Z M 22.6875 -28.078125 "/></g></g></g><g fill="#ffffff" fill-opacity="1"><g transform="translate(210.798063, 201.003181)"><g/></g></g><g fill="#ffffff" fill-opacity="1"><g transform="translate(219.277219, 201.003181)"><g><path d="M 22.765625 -10.921875 L 15.796875 -10.921875 L 15.796875 -3.796875 L 9.3125 -3.796875 L 9.3125 -10.921875 L 2.359375 -10.921875 L 2.359375 -17.046875 L 9.3125 -17.046875 L 9.3125 -24.203125 L 15.796875 -24.203125 L 15.796875 -17.046875 L 22.765625 -17.046875 Z M 22.765625 -10.921875 "/></g></g></g><g fill="#ffffff" fill-opacity="1"><g transform="translate(244.394721, 201.003181)"><g/></g></g><g fill="#ffffff" fill-opacity="1"><g transform="translate(252.873877, 201.003181)"><g><path d="M 13 -28.078125 C 15.957031 -28.078125 18.539062 -27.488281 20.75 -26.3125 C 22.96875 -25.144531 24.679688 -23.5 25.890625 -21.375 C 27.109375 -19.257812 27.71875 -16.816406 27.71875 -14.046875 C 27.71875 -11.296875 27.109375 -8.851562 25.890625 -6.71875 C 24.679688 -4.582031 22.960938 -2.925781 20.734375 -1.75 C 18.515625 -0.582031 15.9375 0 13 0 L 2.484375 0 L 2.484375 -28.078125 Z M 12.5625 -5.921875 C 15.144531 -5.921875 17.15625 -6.625 18.59375 -8.03125 C 20.039062 -9.445312 20.765625 -11.453125 20.765625 -14.046875 C 20.765625 -16.628906 20.039062 -18.640625 18.59375 -20.078125 C 17.15625 -21.515625 15.144531 -22.234375 12.5625 -22.234375 L 9.3125 -22.234375 L 9.3125 -5.921875 Z M 12.5625 -5.921875 "/></g></g></g><g fill="#ffffff" fill-opacity="1"><g transform="translate(281.950989, 201.003181)"><g><path d="M 1.3125 -14.078125 C 1.3125 -16.847656 1.910156 -19.320312 3.109375 -21.5 C 4.316406 -23.675781 5.992188 -25.367188 8.140625 -26.578125 C 10.285156 -27.796875 12.71875 -28.40625 15.4375 -28.40625 C 18.769531 -28.40625 21.625 -27.523438 24 -25.765625 C 26.375 -24.003906 27.960938 -21.601562 28.765625 -18.5625 L 21.234375 -18.5625 C 20.679688 -19.726562 19.890625 -20.617188 18.859375 -21.234375 C 17.828125 -21.847656 16.660156 -22.15625 15.359375 -22.15625 C 13.253906 -22.15625 11.546875 -21.421875 10.234375 -19.953125 C 8.929688 -18.492188 8.28125 -16.535156 8.28125 -14.078125 C 8.28125 -11.628906 8.929688 -9.671875 10.234375 -8.203125 C 11.546875 -6.734375 13.253906 -6 15.359375 -6 C 16.660156 -6 17.828125 -6.304688 18.859375 -6.921875 C 19.890625 -7.535156 20.679688 -8.425781 21.234375 -9.59375 L 28.765625 -9.59375 C 27.960938 -6.5625 26.375 -4.171875 24 -2.421875 C 21.625 -0.671875 18.769531 0.203125 15.4375 0.203125 C 12.71875 0.203125 10.285156 -0.398438 8.140625 -1.609375 C 5.992188 -2.828125 4.316406 -4.515625 3.109375 -6.671875 C 1.910156 -8.835938 1.3125 -11.304688 1.3125 -14.078125 Z M 1.3125 -14.078125 "/></g></g></g></svg>